<?xml version="1.0" encoding="utf-8"?>
<!-- Generator: Adobe Illustrator 23.0.2, SVG Export Plug-In . SVG Version: 6.00 Build 0)  -->
<svg version="1.1" id="Layer_1" xmlns="http://www.w3.org/2000/svg" xmlns:xlink="http://www.w3.org/1999/xlink" x="0px" y="0px"
	 viewBox="0 0 100 100" style="enable-background:new 0 0 100 100;" xml:space="preserve">
<style type="text/css">
	.st0{display:none;}
	.st1{display:inline;}
	.st2{fill:none;stroke:#000000;stroke-width:2;stroke-linejoin:round;stroke-miterlimit:10;}
	.st3{display:inline;fill:none;stroke:#000000;stroke-width:2;stroke-linecap:round;stroke-linejoin:round;stroke-miterlimit:10;}
	.st4{fill:none;stroke:#000000;stroke-width:2;stroke-linecap:round;stroke-linejoin:round;stroke-miterlimit:10;}
	.st5{fill:#CC8D8D;}
</style>
<g class="st0">
	<g class="st1">
		<polyline class="st2" points="73,57.5 58,57.5 58,20.5 70.1,20.5 85,34.3 85,47.5 		"/>
		<line class="st2" x1="85" y1="34.5" x2="58" y2="34.5"/>
		<line class="st2" x1="63" y1="40.5" x2="67" y2="40.5"/>
		<path class="st2" d="M90.1,56.5c0,3.8-3.1,6.9-6.9,6.9s-6.9-3.1-6.9-6.9"/>
		<path class="st2" d="M83.2,47.1c-5.7,0-10.4,3.4-10.4,10.4h20.7C93.6,50.5,89,47.1,83.2,47.1z"/>
		<polyline class="st2" points="17,57.5 6,57.5 6,51.5 19,51.5 		"/>
		<polyline class="st2" points="29,51.5 58,51.5 58,57.5 31,57.5 		"/>
		<polyline class="st2" points="33,51.5 33,36.5 15,36.5 15,20.5 70.1,20.5 60.8,12.5 10.6,12.5 6,18.5 6,51.5 		"/>
		<line class="st2" x1="58.7" y1="34.9" x2="54.5" y2="30.7"/>
		<rect x="33" y="20.5" class="st2" width="4" height="31"/>
		<g>
			<circle class="st2" cx="24" cy="56.7" r="7.1"/>
			<circle cx="24" cy="56.7" r="1.8"/>
		</g>
	</g>
</g>
<g class="st0">
	<path class="st1" d="M36.8,28.9c0.3-0.6,1.2-0.9,2-0.5c0.9,0.3,1.3,1.1,1.1,1.8c-0.3,0.6-0.8-0.1-1.6-0.4
		C37.4,29.4,36.5,29.6,36.8,28.9z"/>
	<path class="st3" d="M17.2,39.3c0,0,0.8-5.9-5.2-5.9s-6.1,12.8,2.6,14.9"/>
	<path class="st3" d="M8.1,52.2L8.1,52.2c0,0,5.5,3.4,18.4,6.9s16.2-1.6,16.2-3.4c0-1.7,0.5-2.9,0.5-2.9c2.6-1.4,0.7-3.2,0.7-3.2
		c3.5-1.1,2.3-4.4,2.3-4.4c2.7-2.7,2-4.8-0.5-6c-2.2-1.1-1.8-5.8-1.7-6.7c0,0,0-0.1,0-0.1c0,0,0,0,0,0l0,0c0.1-0.9,0.1-1.8,0.1-2.8
		c0-2.4-0.3-4.8-1-7"/>
	<path class="st3" d="M5.8,51c0,0,0.9,5.3,0.2,10.2"/>
	<path class="st3" d="M25,58.7c0,0-1.4,3.9-1.4,8.1"/>
	<polyline class="st3" points="31.5,76.4 23.6,66.8 6,61 5,62.5 	"/>
	<line class="st3" x1="23.6" y1="66.8" x2="19.7" y2="71.9"/>
	<path class="st3" d="M39,37.5c0-1.1-0.9-2-2-2s-2,0.9-2,2"/>
	<g class="st1">
		<path class="st4" d="M17.2,56.2c1.6,0.6,3.5,1.2,5.6,1.9L17.2,56.2z"/>
		<path class="st4" d="M17.2,56.2C17.1,56.2,17.1,56.2,17.2,56.2L17.2,56.2L17.2,56.2z"/>
		<path class="st4" d="M5,50.4c1,0.7,2,1.3,3.1,1.8c0,0,2.8,1.7,9,4l-2.4-7.9c-8.7-2.1-8.6-14.9-2.6-14.9c6,0,5.2,5.9,5.2,5.9
			c6.4-2.3,7.9-13.5,7.9-13.5S47,27.5,48,14.3c0,0.1-0.5,0.2-0.6,0.2c-0.5,0.2-1,0.3-1.5,0.4c-1.5,0.3-3,0.4-4.5,0.1
			c-1-0.2-1.9-0.5-2.7-1.2c-0.7-0.6-1.3-1.4-2-2.1c-1.4-1.4-3-2.6-4.7-3.6c-1.7-1-3.5-1.9-5.5-2.5c-2-0.6-4-1-6.1-1.1
			c-0.5,0-1,0-1.4,0C13.9,4.5,9,6.1,5,8.9"/>
	</g>
	<polyline class="st3" points="35.7,81.6 31.5,76.4 5,66.2 	"/>
	<g class="st1">
		<path d="M63.2,28.9c-0.3-0.6-1.2-0.9-2-0.5c-0.9,0.3-1.3,1.1-1.1,1.8c0.3,0.6,0.8-0.1,1.6-0.4C62.6,29.4,63.5,29.6,63.2,28.9z"/>
		<path class="st4" d="M82.8,39.3c0,0-0.8-5.9,5.2-5.9s6.1,12.8-2.6,14.9"/>
		<path class="st4" d="M56.7,22.6c-0.7,2.2-1,4.6-1,7c0,0.9,0.1,1.9,0.1,2.8l0,0c0,0,0,0,0,0c0,0,0,0.1,0,0.1
			c0.1,0.9,0.5,5.6-1.7,6.7c-2.4,1.2-3.1,3.3-0.5,6c0,0-1.3,3.4,2.3,4.4c0,0-1.9,1.8,0.7,3.2c0,0,0.5,1.2,0.5,2.9
			c0,1.7,3.4,6.9,16.2,3.4c3.8-1,6.9-2,9.4-3"/>
		<path class="st4" d="M75,58.7c0,0,3.1,8.5,1,13.8"/>
		<line class="st4" x1="77" y1="68.5" x2="90" y2="62.5"/>
		<path class="st4" d="M61,37.5c0-1.1,0.9-2,2-2c1.1,0,2,0.9,2,2l2-1"/>
		<path class="st4" d="M95,64.8C71.6,72.4,67.3,78,67.3,81.5"/>
		<path class="st4" d="M95,8.9c-4-2.8-8.9-4.4-14.1-4.4c-6.4,0-17,2.7-17,2.7c-2.4,0.1-5.4-0.1-7.7-0.1c-2.6,0-4.6,6.9-3.6,9.9
			c1.3,4.1,3.3,5.3,6.4,6.9c4.7,2.4,10.5,2.8,15.7,2c0.1,0,0.2,0,0.3,0c0,0,1.5,11.3,7.9,13.5c0,0-0.8-5.9,5.2-5.9
			c6,0,6.1,12.8-2.6,14.9l-2.4,7.9l-0.1,0c2.5,4.3,7,7.2,12.2,7.4"/>
	</g>
	<path class="st3" d="M54-4.1c0-1.1-0.9-2.4-2-2.4l0,0l0,0c-1,0-1.9,1-2,2c-0.1-1-1-2-2-2l0,0l0,0c-1.1,0-2,1.2-2,2.4l0,0
		c0,0-0.1,2.6,4,5.6l0,0l0,0l0,0l0,0C54.1-1.5,54-4.1,54-4.1L54-4.1z"/>
</g>
<g class="st0">
	<path class="st3" d="M20,40.6c0,21.5,15,40.9,30,40.9s30-19.4,30-40.9C80,19.1,66.6,7.5,50,7.5S20,19.1,20,40.6z"/>
	<path class="st3" d="M80,39.5c-5.9-9.8-17.1-16-30-16s-24.1,6.2-30,16"/>
	<path class="st3" d="M23,25.5c6.3-7,16.1-13,27-13s20.7,6,27,13"/>
	<path class="st3" d="M33,12.5c-0.7-1.5-1-3.3-1-5c0-7.7,8.1-14,18-14c9.9,0,18,6.3,18,14c0,1.7-0.3,3.5-1,5"/>
	<path class="st3" d="M69,44.5c0,0-1.7,2-5,2s-5-2-5-2"/>
	<line class="st3" x1="66" y1="46.5" x2="68" y2="48.5"/>
	<line class="st3" x1="69" y1="45.5" x2="71" y2="47.5"/>
	<path class="st3" d="M31,44.5c0,0,1.7,2,5,2s5-2,5-2"/>
	<line class="st3" x1="34" y1="46.5" x2="32" y2="48.5"/>
	<line class="st3" x1="31" y1="45.5" x2="29" y2="47.5"/>
	<path class="st3" d="M58,66.5c0,0-2.7,1-8,1c-5.3,0-8-1-8-1"/>
	<path class="st3" d="M54,69.5c0,0-1.3,2-4,2c-2.7,0-4-2-4-2"/>
	<polyline class="st3" points="53,57.5 52,58.5 48,58.5 47,57.5 	"/>
	<path class="st3" d="M79,31.5c0,0-3-3-5-4"/>
	<path class="st3" d="M21,31.5c0,0,3-3,5-4"/>
	<path class="st3" d="M80,45.5c3,0.8,5,2.9,4,7c-1,4.3-4.8,9.8-8,9"/>
	<path class="st3" d="M20,45.5c-3,0.8-5,2.9-4,7c1,4.3,4.8,9.8,8,9"/>
	<line class="st3" x1="36" y1="76.5" x2="36" y2="81.5"/>
	<line class="st3" x1="64" y1="76.5" x2="64" y2="81.5"/>
	<path class="st3" d="M45,64.5c0,0,2-1,3-1s2,0.9,2,0.9s1-0.9,2-0.9s3,1,3,1"/>
	<path class="st3" d="M20,39.5C20,39.5,20,39.5,20,39.5"/>
	<path class="st3" d="M50,78.5c-13.6,0-27-18.8-27-37.9c0-0.1,0-0.2,0-0.3c5.6-8.7,15.6-13.9,27-13.9s21.4,5.2,27,13.9
		c0,0.1,0,0.2,0,0.3C77,59.7,63.6,78.5,50,78.5z"/>
	<ellipse class="st3" cx="35" cy="45.5" rx="9" ry="7"/>
	<ellipse class="st3" cx="65" cy="45.5" rx="9" ry="7"/>
</g>
<g>
	<g>
		<path class="st5" d="M59.8,56.4c-0.4-0.4-1-0.5-1.4-0.1s-0.5,1-0.1,1.4c0.1,0.1,2,2.4,5.8,2.4c0.5,0,1-0.1,1.5-0.1l1.8,1.8
			c0.2,0.2,0.5,0.3,0.7,0.3s0.5-0.1,0.7-0.3c0.4-0.4,0.4-1,0-1.4l-1.1-1.1c0.3-0.1,0.5-0.3,0.8-0.4l1.9,1.9c0.2,0.2,0.5,0.3,0.7,0.3
			s0.5-0.1,0.7-0.3c0.4-0.4,0.4-1,0-1.4l-1.8-1.8c0.2-0.4,0.1-0.9-0.2-1.2c-0.4-0.4-1-0.3-1.4,0.1C68.2,56.4,66.8,58,64,58
			S59.8,56.4,59.8,56.4z"/>
		<path class="st5" d="M41.6,56.2c-0.4-0.4-1-0.3-1.4,0.1C40.2,56.4,38.8,58,36,58c-2.8,0-4.2-1.6-4.2-1.6c-0.4-0.4-1-0.5-1.4-0.1
			c-0.4,0.3-0.4,0.8-0.2,1.2l-1.8,1.8c-0.4,0.4-0.4,1,0,1.4c0.2,0.2,0.5,0.3,0.7,0.3s0.5-0.1,0.7-0.3l1.9-1.9
			c0.2,0.1,0.5,0.3,0.8,0.4l-1.1,1.1c-0.4,0.4-0.4,1,0,1.4c0.2,0.2,0.5,0.3,0.7,0.3s0.5-0.1,0.7-0.3l1.8-1.8C35,59.9,35.5,60,36,60
			c3.8,0,5.7-2.3,5.8-2.4C42.1,57.2,42.1,56.6,41.6,56.2z"/>
		<path class="st5" d="M57.7,78.1c0,0-2.6,0.9-7.7,0.9c-5,0-7.6-0.9-7.6-0.9c-0.5-0.2-1.1,0.1-1.3,0.6c-0.2,0.5,0.1,1.1,0.6,1.3
			c0.1,0,2.9,1.1,8.4,1.1c5.5,0,8.2-1,8.4-1.1c0.5-0.2,0.8-0.8,0.6-1.3S58.2,77.9,57.7,78.1z"/>
		<path class="st5" d="M53.2,81.4c0,0.1-1.1,1.6-3.2,1.6c-2.1,0-3.1-1.5-3.2-1.6c-0.3-0.5-0.9-0.6-1.4-0.3c-0.5,0.3-0.6,0.9-0.3,1.4
			c0.1,0.1,1.7,2.4,4.8,2.4c3.2,0,4.8-2.3,4.8-2.4c0.3-0.5,0.2-1.1-0.3-1.4C54.1,80.9,53.5,81,53.2,81.4z"/>
		<path class="st5" d="M47.3,71.7c0.2,0.2,0.4,0.3,0.7,0.3h4c0.3,0,0.5-0.1,0.7-0.3l1-1c0.4-0.4,0.4-1,0-1.4s-1-0.4-1.4,0L51.6,70
			h-3.2l-0.7-0.7c-0.4-0.4-1-0.4-1.4,0s-0.4,1,0,1.4L47.3,71.7z"/>
		<path class="st5" d="M80.8,57.2c0.1-1.4,0.2-2.7,0.2-4.1c0-0.4,0-0.7,0-1c0-0.1,0-0.2,0-0.2c-0.3-12-5-21.6-12.7-27.2
			c0.5-1.3,0.8-2.9,0.8-4.6c0-8.3-8.5-15-19-15s-19,6.7-19,15c0,1.7,0.3,3.3,0.8,4.6C24,30.3,19.3,39.8,19,51.8c0,0,0,0,0,0
			c0,0,0,0,0,0.1c0,0.1,0,0.2,0,0.3c0,0.3,0,0.6,0,0.9c0,1.4,0.1,2.7,0.2,4.1c-3.6,1.2-5.1,4-4.2,8c1,4.3,4.6,9.8,8.4,9.8
			c0.3,0,0.5,0,0.8-0.1C27,80.6,30.7,85.5,35,89v5c0,0.6,0.4,1,1,1s1-0.4,1-1v-3.5c4,2.8,8.5,4.5,13,4.5s9-1.6,13-4.5V94
			c0,0.6,0.4,1,1,1c0.6,0,1-0.4,1-1v-5c4.3-3.5,8-8.4,10.8-14c0.3,0.1,0.5,0.1,0.8,0.1c3.7,0,7.4-5.6,8.4-9.8
			C85.9,61.2,84.4,58.4,80.8,57.2z M21.8,44.6c0.5-0.5,3-2.9,4.7-3.7c0.5-0.2,0.7-0.8,0.4-1.3s-0.8-0.7-1.3-0.4
			c-0.9,0.5-2,1.3-2.9,2c0.2-0.8,0.5-1.5,0.8-2.2c0.1-0.1,0.2-0.1,0.3-0.2C30.9,30.7,40.7,26,50,26s19.1,4.7,26.3,12.7
			c0.1,0.1,0.2,0.2,0.3,0.2c0.3,0.7,0.5,1.5,0.8,2.2c-0.9-0.8-2-1.6-2.9-2c-0.5-0.2-1.1,0-1.3,0.4c-0.2,0.5,0,1.1,0.4,1.3
			c1.7,0.8,4.2,3.3,4.7,3.7c0.2,1.2,0.4,2.5,0.6,3.8C72.2,40,61.7,35,50,35s-22.2,5-28.8,13.5C21.4,47.1,21.5,45.9,21.8,44.6z
			 M33,20c0-7.2,7.6-13,17-13s17,5.8,17,13c0,1.3-0.2,2.4-0.5,3.5C61.9,20.6,56.3,19,50,19s-11.9,1.6-16.5,4.5
			C33.2,22.4,33,21.3,33,20z M33.1,26c0.1,0,0.2,0,0.3-0.1c0.2-0.1,0.3-0.2,0.4-0.4C38.3,22.6,43.7,21,50,21s11.7,1.6,16.2,4.5
			c0.1,0.2,0.2,0.3,0.4,0.4c0.1,0,0.2,0,0.3,0.1c2.9,2,5.3,4.7,7.3,7.8C67,27.6,58.3,24,50,24s-17,3.6-24.1,9.8
			C27.8,30.6,30.3,28,33.1,26z M17,64.8c-0.7-2.8,0.1-4.6,2.4-5.5c0.6,4.8,2,9.5,3.9,13.8C21,73,17.9,68.6,17,64.8z M50,93
			c-14.9,0-29-19.4-29-39.9c0-0.3,0-0.6,0-0.8C26.9,42.7,37.7,37,50,37s23.1,5.7,29,15.3c0,0.3,0,0.6,0,0.8C79,73.6,64.9,93,50,93z
			 M83,64.8c-0.9,3.8-4,8.2-6.3,8.3c1.9-4.3,3.3-9,3.9-13.8C82.9,60.2,83.7,62,83,64.8z"/>
		<path class="st5" d="M50,75.6c-0.5-0.3-1.2-0.6-2-0.6c-1.2,0-3.1,0.9-3.4,1.1c-0.5,0.2-0.7,0.8-0.4,1.3c0.2,0.4,0.5,0.6,0.9,0.6
			c0.2,0,0.3,0,0.4-0.1c0.7-0.4,2-0.9,2.6-0.9c0.5,0,1.1,0.4,1.3,0.6c0.4,0.3,0.9,0.3,1.3,0c0.2-0.2,0.9-0.6,1.3-0.6
			c0.5,0,1.8,0.5,2.6,0.9c0.5,0.2,1.1,0,1.3-0.4c0.2-0.5,0-1.1-0.4-1.3C55.1,75.9,53.2,75,52,75C51.2,75,50.5,75.3,50,75.6z"/>
		<path class="st5" d="M77.8,52.3C72.1,43.3,61.6,38,50,38s-22.1,5.3-27.8,14.3c-0.1,0.2-0.2,0.3-0.2,0.5v0.3C22,72.7,35.9,92,50,92
			s28-19.3,28-38.9v-0.3C78,52.7,77.9,52.5,77.8,52.3z M50,90c-13.1,0-26-18.2-26-36.8C29.4,44.9,39.1,40,50,40s20.6,4.9,26,13.2
			C76,71.8,63.1,90,50,90z"/>
		<path class="st5" d="M45,58c0-4.4-4.5-8-10-8s-10,3.6-10,8s4.5,8,10,8S45,62.4,45,58z M35,64c-4.4,0-8-2.7-8-6s3.6-6,8-6
			s8,2.7,8,6S39.4,64,35,64z"/>
		<path class="st5" d="M55,58c0,4.4,4.5,8,10,8s10-3.6,10-8s-4.5-8-10-8S55,53.6,55,58z M73,58c0,3.3-3.6,6-8,6s-8-2.7-8-6
			s3.6-6,8-6S73,54.7,73,58z"/>
	</g>
</g>
</svg>
