<?xml version="1.0" encoding="utf-8"?>
<!-- Generator: Adobe Illustrator 23.0.2, SVG Export Plug-In . SVG Version: 6.00 Build 0)  -->
<svg version="1.1" id="Layer_1" xmlns="http://www.w3.org/2000/svg" xmlns:xlink="http://www.w3.org/1999/xlink" x="0px" y="0px"
	 viewBox="0 0 100 100" style="enable-background:new 0 0 100 100;" xml:space="preserve">
<style type="text/css">
	.st0{fill:#CC8D8D;}
</style>
<path class="st0" d="M49.7,66.3v-7.6c0-0.3,0.2-0.5,0.5-0.5s0.5,0.2,0.5,0.5v7.6c0,0.3-0.2,0.5-0.5,0.5S49.7,66.6,49.7,66.3z
	 M67.7,58.5c0,0.3-0.2,0.5-0.5,0.5c-0.7,0-1.2-0.1-1.8-0.2l0,0c-0.1,0.1-2.3,2.3-5,2.3c-2.7,0-4.9-2.2-5-2.3l-0.3-0.3l0.3-0.3
	c0.1-0.1,2.3-2.8,5-2.8c2,0,3.7,1.4,4.5,2.2c0.7,0.3,1.4,0.4,2.3,0.4C67.5,58,67.7,58.3,67.7,58.5z M61.7,57.7c-0.2,0-0.5,0-0.7-0.1
	c0.1,0.1,0.1,0.2,0.1,0.4c0,0.4-0.3,0.8-0.8,0.8s-0.8-0.3-0.8-0.8c0-0.1,0-0.3,0.1-0.4c-0.3,0-0.5,0.1-0.7,0.1c0,0.1,0,0.2,0,0.2
	c0,0.8,0.6,1.4,1.4,1.4c0.8,0,1.4-0.6,1.4-1.4C61.8,57.9,61.7,57.8,61.7,57.7z M56.7,58.6c0.4,0.4,1.1,0.8,1.9,1.2
	c-0.5-0.4-0.7-1-0.8-1.7C57.4,58.2,57,58.4,56.7,58.6z M60.5,56.4c-0.5,0-1.1,0.1-1.6,0.4c0.5-0.1,1-0.2,1.6-0.2c0.5,0,1,0,1.4,0.1
	C61.5,56.5,61,56.4,60.5,56.4z M64.4,58.5c-0.1,0-0.2-0.1-0.3-0.1c-0.4-0.2-0.9-0.3-1.3-0.5c0,0,0,0.1,0,0.1c0,0.8-0.4,1.5-1,2
	C62.9,59.6,63.9,58.9,64.4,58.5z M45.2,58.8c-0.1,0.1-2.3,2.3-5,2.3s-4.9-2.2-5-2.3l0,0C34.7,59,34.1,59,33.5,59
	c-0.3,0-0.5-0.2-0.5-0.5s0.2-0.5,0.5-0.5c0.9,0,1.6-0.2,2.3-0.4c0.8-0.8,2.5-2.2,4.5-2.2c2.8,0,4.9,2.7,5,2.8l0.3,0.3L45.2,58.8z
	 M38.9,58c0,0.8,0.6,1.4,1.4,1.4s1.4-0.6,1.4-1.4c0-0.1,0-0.2,0-0.2c-0.2-0.1-0.5-0.1-0.7-0.1c0.1,0.1,0.1,0.2,0.1,0.4
	c0,0.4-0.3,0.8-0.8,0.8s-0.8-0.3-0.8-0.8c0-0.1,0.1-0.3,0.1-0.4c-0.3,0-0.5,0-0.8,0.1C39,57.8,38.9,57.9,38.9,58z M42.1,59.7
	c0.8-0.3,1.5-0.8,1.9-1.2c-0.3-0.2-0.7-0.3-1.2-0.5C42.8,58.7,42.5,59.3,42.1,59.7z M40.2,56.4c-0.5,0-1,0.1-1.4,0.3
	c0.4-0.1,0.9-0.1,1.4-0.1c0.6,0,1.1,0.1,1.6,0.2C41.3,56.5,40.8,56.4,40.2,56.4z M36.3,58.5c0.5,0.4,1.5,1.2,2.7,1.5
	c-0.6-0.4-1-1.2-1-2c0,0,0-0.1,0-0.1c-0.5,0.1-0.9,0.3-1.3,0.5C36.5,58.4,36.4,58.4,36.3,58.5z M54.8,54.3c0.1,0,0.2,0,0.3-0.1
	c0,0,4.2-3.1,11-1.2c0.3,0.1,0.5-0.1,0.6-0.3c0.1-0.3-0.1-0.5-0.3-0.6c-7.2-2.1-11.7,1.2-11.9,1.4c-0.2,0.2-0.3,0.5-0.1,0.7
	C54.5,54.2,54.6,54.3,54.8,54.3z M34.8,53c6.7-2,10.9,1.2,11,1.2c0.1,0.1,0.2,0.1,0.3,0.1c0.2,0,0.3-0.1,0.4-0.2
	c0.2-0.2,0.1-0.5-0.1-0.7c-0.2-0.1-4.6-3.5-11.9-1.4c-0.3,0.1-0.4,0.4-0.3,0.6C34.3,52.9,34.6,53,34.8,53z M48.1,67.5h0.5
	c0.3,0,0.5-0.2,0.5-0.5s-0.2-0.5-0.5-0.5h-0.5c-0.3,0-0.5,0.2-0.5,0.5S47.8,67.5,48.1,67.5z M51.7,67.5h0.5c0.3,0,0.5-0.2,0.5-0.5
	s-0.2-0.5-0.5-0.5h-0.5c-0.3,0-0.5,0.2-0.5,0.5S51.5,67.5,51.7,67.5z M55.5,71.7l0.7,0.2l-0.5,0.6c-0.1,0.1-1.6,2-2.8,2.8
	c-0.9,0.7-1.9,1-2.8,1c-1,0-2-0.3-2.9-1c-1.2-0.8-2.7-2.7-2.8-2.8L44,71.9l0.7-0.2c0.1,0,3-0.8,3.8-0.9c0.6-0.1,1,0.1,1.3,0.2
	c0.1,0,0.2,0.1,0.2,0.1c0,0,0.1,0,0.2-0.1c0.3-0.1,0.7-0.3,1.3-0.2C52.6,70.9,55.4,71.6,55.5,71.7z M46.8,72.2c0.1,0,0.1,0,0.2,0.1
	c1.1,0.3,1.9,0.6,3.1,0.6c1.3,0,2.3-0.3,3.4-0.6c-0.8-0.2-1.7-0.4-2-0.4c-0.3,0-0.6,0.1-0.8,0.2c-0.4,0.2-0.8,0.1-1.2,0
	c-0.2-0.1-0.5-0.2-0.8-0.2C48.4,71.8,47.6,72,46.8,72.2z M53.8,73.2c-1.2,0.4-2.3,0.7-3.7,0.7c-1.3,0-2.2-0.3-3.4-0.6
	c-0.1,0-0.2-0.1-0.3-0.1c0.5,0.5,1,1,1.5,1.4c1.6,1.1,3.1,1.1,4.6,0C52.9,74.1,53.4,73.6,53.8,73.2z M84.9,40.5
	c0.7,1.1,1.1,2.5,1.1,3.9c0,3.5-2.4,6.4-5.7,7.2c1.8,2,1.9,4.9,0.3,7c-0.1,0.1-0.2,0.3-0.3,0.4l-0.1,0.1c-0.3,0.4-0.7,0.6-1.1,0.8
	c-0.7,3.1-3.5,5.3-6.6,5.3c-0.2,0-0.4,0-0.6,0c-0.7,0.9-1.6,1.4-2.5,1.5c-2.5,5.5-6.4,9.9-10.2,12.7c-0.2,1-1.1,8.2,2.9,11.2
	c2.2,1.6,6.2,1.4,9.5,1.2c1-0.1,1.9-0.1,2.7-0.1c4.6,0,6.5,2.9,6.6,3c0.2,0.2,0.1,0.5-0.1,0.7c-0.1,0.1-0.2,0.1-0.3,0.1
	c-0.2,0-0.3-0.1-0.4-0.2c-0.1-0.1-1.7-2.5-5.7-2.5c-0.8,0-1.7,0-2.6,0.1c-3.4,0.2-7.7,0.4-10.1-1.4c-3.8-2.8-3.7-8.8-3.4-11.2
	c-2.9,1.9-5.7,3-8,3c-2.4,0-5.3-1-8.1-3c0.2,2.5,0.4,8.4-3.4,11.2c-2.5,1.8-6.7,1.6-10.1,1.4c-1-0.1-1.9-0.1-2.6-0.1
	c-4.1,0-5.7,2.5-5.7,2.5c-0.1,0.1-0.3,0.2-0.4,0.2c-0.1,0-0.2,0-0.3-0.1c-0.2-0.2-0.3-0.5-0.1-0.7c0.1-0.1,2-3,6.6-3
	c0.8,0,1.7,0,2.7,0.1c3.3,0.2,7.3,0.4,9.5-1.2c4-3,3-10.3,2.9-11.2c-3.7-2.8-7.2-7.2-9.5-12.7c-0.7-0.1-1.4-0.4-2.1-1
	c-0.6,0.3-1.4,0.5-2.1,0.5c-0.6,0-1.2-0.1-1.7-0.3c-1.4-0.6-2.5-1.6-3.1-3c-0.6-1.4-0.6-2.9,0-4.3c0.1-0.2,0.2-0.5,0.3-0.7
	c-4.7-1.6-8-6.1-8-11.1c0-1.5,0.3-2.9,0.8-4.3c-1-1.3-1.6-2.9-1.6-4.6c0-2.1,0.7-4.1,2.2-5.6c0.1-0.1,0.2-0.1,0.2-0.2
	c-0.2-0.8-0.2-1.6-0.2-2.5c0-5.3,3.1-10.1,8-12.3c0.4-2.9,2.5-5.4,5.3-6.3c1.1-0.4,2.3-0.4,3.4-0.1c0.4-2.4,2.5-4.2,4.9-4.2
	c1,0,2,0.3,2.9,0.9c2.1-1.9,4.9-3.1,8-3.1c2.6,0,5,0.8,7.1,2.4c1.2-0.7,2.5-1.1,3.9-1.2c2.3-0.2,4.6,0.6,6.3,2.1
	c1,0.9,1.7,2,2.1,3.2c7.3,1.3,12.9,7.3,13.9,14.6c2.2,1.2,3.5,3.7,3.1,6.3c0,0.2-0.1,0.5-0.1,0.7c-0.2,0.7-0.5,1.3-0.9,1.8
	c0,0-0.1,0.1-0.1,0.1c1.4,0.6,2.3,1.9,2.3,3.4C86,38.8,85.6,39.8,84.9,40.5z M80.1,26c-0.6-0.2-1.2-0.2-1.8-0.2c0,0,0,0,0,0
	c0,0,0,0,0,0c-1.1,0-2.1,0.3-3.1,0.9c-1.5,0.9-2.6,2.3-3.1,4c-0.5,1.9-0.3,4,0.6,5.8c0.4,0.8,0.9,1.5,1.5,2.1c1.3-1,2.9-1.6,4.5-1.6
	c2.3,0,4.3,1,5.7,2.7c0.4-0.5,0.7-1.1,0.7-1.8c0-1.3-0.9-2.3-2.1-2.6c-1.2,0.9-2.8,1.3-4.4,0.9C78,36,77.5,35.7,77,35.3
	c-0.7-0.6-1.2-1.4-1.4-2.4c-0.1-0.6-0.1-1.2,0.1-1.8c0.5-1.8,2.3-2.9,4.2-2.4c1.2,0.3,2.1,1.5,2.1,2.7c0,0.3,0,0.5-0.1,0.7
	c-0.3,1.3-1.6,2-2.9,1.7c-0.8-0.2-1.4-0.9-1.5-1.8c0-0.2,0-0.4,0.1-0.7c0.2-0.9,1.2-1.4,2.1-1.2c0.3,0.1,0.4,0.3,0.4,0.6
	c-0.1,0.3-0.3,0.4-0.6,0.4c-0.4-0.1-0.7,0.1-0.8,0.5c0,0.1,0,0.2,0,0.3c0,0.4,0.3,0.8,0.7,0.9c0.7,0.2,1.5-0.2,1.7-1
	c0-0.1,0.1-0.3,0.1-0.5c0-0.8-0.6-1.5-1.3-1.8c-1.3-0.3-2.6,0.4-2.9,1.7c-0.1,0.5-0.1,0.9,0,1.4c0.1,0.7,0.5,1.4,1.1,1.8
	c0.3,0.3,0.7,0.5,1.2,0.6c1.3,0.3,2.6,0,3.6-0.8c0,0,0.1-0.1,0.1-0.1c0.2-0.2,0.4-0.3,0.5-0.5c0.3-0.4,0.6-0.9,0.7-1.5
	c0.1-0.2,0.1-0.4,0.1-0.6C84.3,29.1,82.7,26.7,80.1,26z M75.7,41c-0.7-0.4-1.3-0.8-1.9-1.4c0,0-0.1,0-0.1-0.1c0,0,0,0,0,0
	c-0.1-0.1-0.2-0.1-0.2-0.2c-0.3-0.3-0.6-0.7-0.9-1.1c-0.5,0.7-0.9,1.5-1.1,2.3c-0.2,0.7-0.2,1.7-0.2,2.4c0,0.1,0.1,0.2,0.1,0.3
	c0,0,0,0,0,0l0,0c0.5,1.2,0.8,2.5,1.2,3.9c0.1,0.2,0.3,0.4,0.5,0.6c0.4,0.5,1,0.8,1.5,1.1c0.5,0.3,1.1,0.5,1.7,0.6
	c0.2,0,0.4,0,0.6,0.1c0.7,0.1,1.3,0,2-0.1c1.3-0.3,2.3-1.1,3-2.2c0.7-1.1,0.9-2.4,0.6-3.7c-0.4-1.9-2.2-3.1-4.1-2.9
	c-0.2,0-0.3,0-0.4,0.1c-0.4,0.1-0.7,0.3-1.1,0.5c-0.9,0.7-1.4,1.9-1.1,3c0.1,0.3,0.2,0.6,0.4,0.9c0.3,0.4,0.8,0.7,1.3,0.8
	c0.3,0.1,0.7,0.1,1,0c0.9-0.2,1.5-1.1,1.3-2c-0.1-0.5-0.6-0.9-1.2-1c-0.1,0-0.2,0-0.3,0c-0.2,0.1-0.4,0.2-0.6,0.4
	c-0.1,0.2-0.2,0.4-0.1,0.7c0.1,0.3,0.3,0.4,0.5,0.5c0.1,0,0.1,0,0.2,0c0.3-0.1,0.5,0.1,0.6,0.4s-0.1,0.5-0.4,0.6
	c-0.2,0-0.4,0.1-0.6,0c-0.6-0.1-1.2-0.6-1.4-1.2c-0.1-0.5,0-1,0.2-1.4c0.3-0.4,0.7-0.7,1.2-0.9c0.2,0,0.4-0.1,0.6-0.1
	c1,0,1.9,0.7,2.1,1.7c0.3,1.5-0.6,2.9-2,3.2c-0.5,0.1-1,0.1-1.5,0c-0.7-0.2-1.4-0.6-1.8-1.2c-0.3-0.4-0.5-0.8-0.6-1.2
	C74.5,43.2,74.8,41.9,75.7,41z M72.2,57.5c0.2,0,0.4,0.1,0.5,0.2c-0.2-0.7-0.2-1.5,0-2.2c0.1-0.4,0.4-0.8,0.6-1.2c0,0,0,0,0,0
	c0,0-0.1,0-0.1,0c0,0,0,0,0,0c0,0,0,0,0,0c0,0,0,0,0,0h0c-0.1,0-0.2,0-0.2-0.1c0,0,0,0,0,0c-0.1-0.1-0.3-0.2-0.4-0.2
	C72.5,55.2,72.4,56.3,72.2,57.5z M73.5,62.4c1.1-0.3,2-1,2.6-1.9c-0.8-0.1-1.5-0.5-2.1-1C74.1,60.2,73.9,61.2,73.5,62.4z M72.6,52.8
	c-0.2-1.7-0.5-3.5-0.9-5.3c0,0,0,0,0,0c-0.3-1.2-0.6-2.5-1.1-3.7h0C65.8,36.4,58.1,32,50,32c-0.4,0-0.7,0-1.1,0
	c-1.8,0.9-4,1.3-6.4,1.3c-0.3,0-0.6,0-0.9,0c0,0.3-0.1,0.6-0.2,0.9c-0.3,0.8-0.8,1.3-1.6,1.6C39.5,35.9,39.2,36,39,36
	c-0.4,0-0.8-0.1-1.2-0.3c-2.4,2.4-4.7,3.8-6.9,4.7c-1.7,3.5-2.5,7.5-2.7,12c2.4-1.5,5-2.7,7.6-3.6c-0.1-0.1-0.1-0.2-0.1-0.3
	c0-0.2,0.3-5.3,1.8-8.1c0.1-0.2,0.4-0.3,0.7-0.2c0.2,0.1,0.3,0.4,0.2,0.7c-1.4,2.5-1.6,7.4-1.6,7.6c0.6-0.2,1.2-0.4,1.9-0.6
	c0-1.5,0.2-6.9,3.3-11.4c0.2-0.2,0.5-0.3,0.7-0.1c0.2,0.2,0.3,0.5,0.1,0.7c-2.8,3.9-3.1,8.9-3.1,10.5c3.4-0.9,6.9-1.3,10.4-1.3
	c5.3,0,10.5,1,15.4,2.9c0.1-1.7-0.2-3.9-0.5-4.8c-0.1-0.3,0.1-0.5,0.3-0.6c0.3-0.1,0.5,0.1,0.6,0.3c0.3,1.1,0.7,3.6,0.5,5.4
	C68.5,50.5,70.6,51.6,72.6,52.8z M28.6,53.4c-0.2,0.1-0.4,0.2-0.6,0.3c-0.1,0.1-0.2,0.1-0.3,0.1c-0.2,0-0.4-0.2-0.5-0.4
	c0,0,0,0,0-0.1c0,0,0,0,0,0c0-0.2,0-0.5,0-0.7c-0.2,0-0.3,0-0.5,0c-3.2,0-5.8-2.6-5.8-5.8c0-0.4,0-0.7,0.1-1.1
	c-0.5-0.1-1.1-0.3-1.6-0.5c-0.1,0.5-0.2,1-0.2,1.5c0,4.1,3.4,7.5,7.5,7.5c0.6,0,1.2-0.1,1.8-0.2C28.6,53.8,28.6,53.6,28.6,53.4z
	 M23,36.1c0-0.3-0.2-0.7-0.4-0.9c-0.4-0.3-0.8-0.5-1.3-0.5c-0.5,0-1,0.2-1.3,0.6c-0.5,0.5-0.7,1.1-0.7,1.8s0.3,1.3,0.8,1.7
	c0.4,0.4,0.8,0.6,1.3,0.8c0.1-0.3,0.2-0.7,0.3-1c-0.4-0.1-0.8-0.2-1.1-0.5c-0.7-0.7-0.7-1.8,0-2.4c0.2-0.2,0.5-0.2,0.7,0
	c0.2,0.2,0.2,0.5,0,0.7c-0.3,0.3-0.3,0.7,0,1c0.3,0.2,0.6,0.3,0.9,0.2C22.3,37.1,22.6,36.6,23,36.1z M22.1,40.4
	c1.7,0.4,8.2,1.2,14.9-5.3c-0.1-0.1-0.2-0.2-0.3-0.4c-0.7,0.6-2.2,1.7-3.4,1.7c-0.1,0-0.2,0-0.2,0c-0.4-0.1-0.8-0.3-1-0.7
	c-0.2-0.4-0.2-0.8-0.1-1.1c0.5-1,2.7-1.4,3.9-1.5c0-0.1,0-0.1,0-0.2c-0.7-0.2-4.3-0.9-8.7,1.2c-1.5,0.7-2.6,1.6-3.3,2.5c0,0,0,0,0,0
	C22.6,38.2,22.2,39.7,22.1,40.4z M20.6,30.3c0,0,1.4,0.1,1.5,0.1c0.1,0,0.8,0.2,0.9,0.3c-0.2-1.4,0-2.9,0.6-4.1
	c0.6-1.1,1.4-2.1,2.5-2.8c-0.5-0.6-0.9-1.3-1.2-1.9c-2.7,1.6-4.3,4.5-4.3,7.7C20.6,29.8,20.6,30.1,20.6,30.3z M25.1,32.1
	c0.4,0.4,0.8,0.9,1,1.4c0.2-0.1,0.4-0.2,0.6-0.3c0.2-0.1,0.4-0.2,0.7-0.3c0,0,0,0,0,0c-0.4-0.2-0.7-0.5-1-0.8
	c-0.1-0.2-0.2-0.3-0.3-0.4c-1-1.6-0.7-3.8,0.9-5c0.4-0.3,0.9-0.6,1.4-0.8c-0.6-0.4-1.1-0.8-1.6-1.3c-1.8,1-2.9,2.9-2.9,5
	c0,0.6,0.1,1.2,0.3,1.8C24.5,31.6,24.8,31.8,25.1,32.1z M37.3,14.9c0,0,0,0.1,0.1,0.1c0.1,0.4,0.2,0.9,0.2,1.3
	c0.8-0.2,1.5-0.3,2.3-0.3c4.2,0,7.8,2.8,8.8,6.8c0.5-0.2,0.9-0.3,1.4-0.5c-0.5-1.8-1.5-3.5-2.8-4.8c-0.8-0.8-1.8-1.5-2.8-1.9
	C42.2,14.6,39.6,14.3,37.3,14.9z M53.3,22.5c-2.3,0.6-6.4,1.9-8.5,3.1c-3.4,1.9-4.1,4.3-4.3,5c0,0,0,0,0,0c0.9-0.9,2.9-2.9,4.4-2.9
	c0.4,0,0.8,0.1,1.1,0.4c0.4,0.4,0.5,0.9,0.3,1.3c-0.4,1.4-3.1,2.4-4.7,2.9c4,0.2,7.1-0.8,9.3-2.9c2.6-2.4,3.2-5.8,3.3-7.2
	C54.2,22.2,53.7,22.3,53.3,22.5z M59.7,19.2c-3,1.8-4.9,5-4.9,8.5c0.6,0.1,1.1,0.3,1.6,0.5c0-0.1,0-0.2,0-0.4c0-2.5,1.1-4.8,2.9-6.4
	c0.1-0.3,0.3-0.6,0.5-0.9c0.1-0.2,0.2-0.3,0.4-0.4c0.2-0.2,0.4-0.4,0.6-0.5C60.4,19.5,60.1,19.3,59.7,19.2z M67.1,17
	c4.2,0.9,7.6,4.2,8.5,8.4c0.7-0.3,1.4-0.4,2.1-0.5C76.6,20,72.8,16.2,68,15C67.8,15.7,67.5,16.3,67.1,17z M65.1,18.8
	c0.5,0.1,0.9,0.4,1.3,0.7c3.7,0.7,6.4,3.7,6.8,7.4c0.4-0.4,0.9-0.8,1.4-1.1c0,0,0,0,0,0c-0.8-4.1-4.2-7.3-8.3-7.9
	C66,18.2,65.6,18.6,65.1,18.8z M70.5,40.3c0.3-1.1,0.8-2.1,1.5-3c-0.1-0.1-0.2-0.3-0.2-0.4c-0.1-0.2-0.2-0.3-0.2-0.5
	c-0.1,0.1-0.3,0.3-0.4,0.5c-0.6,0.8-1.1,1.6-1.4,2.6c0.2,0.4,0.4,0.9,0.6,1.3C70.4,40.6,70.4,40.4,70.5,40.3z M51.6,30.2
	c-0.3,0.3-0.7,0.6-1,0.9c6.9,0.2,13.5,3.4,18.3,8.9c0,0-0.1-0.1-0.1-0.1c0-0.1-0.1-0.1-0.1-0.2c-2.1-3.8-5.2-7.2-9.7-9.4
	c-0.1-0.1-0.3-0.1-0.4-0.2c-0.6-0.3-1.2-0.5-1.8-0.7c0,0,0,0,0,0c-0.8-0.3-1.7-0.5-2.6-0.8c0,0,0,0-0.1,0c-0.3-0.1-0.6-0.1-1-0.2
	C52.7,28.9,52.2,29.6,51.6,30.2z M57.5,28.5c0.4,0.2,0.8,0.3,1.3,0.5c0.1,0,0.1,0,0.2,0.1c0.6,0.3,1.5,0.6,2.3,0.7
	c0.7,0.1,1.3,0.1,2-0.1c0.7-0.1,1.4-0.4,2-0.8c0.1-0.1,0.3-0.2,0.4-0.3c0.5-0.3,0.9-0.7,1.3-1.2c0.8-1,1.2-2.3,1-3.6
	s-0.8-2.5-1.9-3.3c0,0,0,0,0,0c0,0,0,0,0,0c-1.5-1.2-3.7-1-5,0.4c-0.1,0.1-0.2,0.2-0.3,0.3c-0.3,0.3-0.4,0.7-0.5,1.1
	c-0.3,1.1,0.1,2.4,1.1,3.1c0.3,0.2,0.6,0.3,0.9,0.4c0.5,0.1,1.1,0.1,1.5-0.2c0.3-0.2,0.6-0.4,0.8-0.6c0.6-0.7,0.4-1.8-0.3-2.4
	c-0.5-0.4-1.1-0.4-1.6,0c-0.1,0.1-0.2,0.1-0.2,0.2c-0.3,0.4-0.2,1,0.2,1.3c0.2,0.2,0.5,0.2,0.7,0c0.1,0,0.1-0.1,0.2-0.1
	c0.1-0.2,0.1-0.4-0.1-0.6c-0.2-0.2-0.3-0.5-0.1-0.7c0.2-0.2,0.5-0.3,0.7-0.1c0.6,0.5,0.7,1.4,0.2,2c-0.1,0.2-0.3,0.3-0.4,0.4
	c-0.6,0.4-1.3,0.3-1.9-0.1c-0.8-0.6-1-1.9-0.3-2.7c0.1-0.1,0.2-0.3,0.4-0.4c0.8-0.6,2-0.6,2.8,0c1.2,0.9,1.4,2.6,0.5,3.8
	c-0.3,0.4-0.7,0.7-1.1,0.9c-0.7,0.3-1.5,0.4-2.2,0.3c-0.5-0.1-0.9-0.3-1.3-0.6c-0.9-0.7-1.5-1.8-1.5-2.9c-1,1.3-1.6,2.9-1.6,4.6
	C57.4,28,57.4,28.2,57.5,28.5z M64,31.8c0-0.5,0-0.9,0.1-1.4c-0.3,0.1-0.5,0.2-0.8,0.2c-0.5,0.1-0.9,0.1-1.4,0.1c0,0,0,0,0,0
	c0.8,0.5,1.5,1.1,2.2,1.7c0-0.1,0-0.1-0.1-0.2c0-0.1-0.1-0.2-0.1-0.4L64,31.8z M71,34.5c-0.7,0.5-1.5,0.8-2.4,0.9
	c-0.1,0-0.3,0-0.4,0c-0.4,0-0.8-0.1-1.2-0.2c0.8,0.9,1.5,2,2.1,3.1c0.3-0.8,0.8-1.5,1.3-2.1c0.3-0.3,0.5-0.6,0.8-0.9
	C71.1,35.1,71,34.8,71,34.5z M72.2,28c0-0.1,0-0.2,0-0.2c0-3-1.8-5.6-4.3-6.7c0.5,0.8,0.9,1.6,1,2.6c0.2,1.6-0.2,3.1-1.2,4.4
	c0,0-0.1,0.1-0.1,0.1c0.2,0,0.4,0.1,0.6,0.1c0.6,0.2,1.1,0.6,1.5,1.2c0.2,0.4,0.4,0.8,0.4,1.2c0.1,0.6-0.1,1.2-0.5,1.7
	c-0.4,0.5-1,0.8-1.6,0.9c-0.9,0.1-1.7-0.4-2-1.3c-0.1-0.2-0.1-0.3-0.1-0.5c0-0.4,0.1-0.9,0.4-1.2c0.3-0.3,0.7-0.6,1.1-0.6
	c0.3,0,0.5,0.2,0.5,0.4c0,0.3-0.2,0.5-0.4,0.5c-0.2,0-0.3,0.1-0.5,0.2c-0.1,0.1-0.2,0.3-0.1,0.5c0,0.1,0,0.1,0.1,0.2
	c0.2,0.4,0.6,0.7,1,0.6c0.4,0,0.7-0.2,0.9-0.5c0.2-0.3,0.3-0.6,0.3-1c0-0.3-0.1-0.5-0.3-0.8c-0.2-0.4-0.6-0.6-1-0.8
	C67.7,29,67.4,29,67.1,29c-0.4,0-0.7,0.2-1,0.4c-0.1,0.1-0.2,0.1-0.3,0.2c-0.3,0.3-0.6,0.6-0.7,1.1C65,31,65,31.3,65,31.7
	c0,0.1,0,0.2,0.1,0.3c0.3,1.6,1.8,2.6,3.4,2.4c0.9-0.1,1.7-0.5,2.4-1.1c-0.1-1,0-1.9,0.3-2.9C71.4,29.5,71.7,28.7,72.2,28z
	 M53.8,27.4c0-0.1,0-0.2,0-0.3c0,0.1-0.1,0.2-0.1,0.3C53.7,27.4,53.8,27.4,53.8,27.4z M39.4,34.9c0.4-0.2,0.8-0.5,0.9-1
	c0.2-0.5,0.2-1.1,0-1.7c-0.2-0.6-0.6-1.1-1.1-1.4c-0.3-0.2-0.6-0.3-0.9-0.3c-0.2,0-0.3,0-0.5,0.1c-0.9,0.3-1.3,1.5-0.9,2.7
	c0.2,0.6,0.6,1.1,1.1,1.4C38.5,35,39,35,39.4,34.9z M39.9,29.2c-0.5,0.2-1,0.3-1.6,0.3c0.5,0,0.9,0.1,1.3,0.3
	C39.7,29.7,39.8,29.5,39.9,29.2z M45.3,29.1c0-0.1,0-0.2-0.1-0.4c-0.1-0.1-0.1-0.1-0.3-0.1c0,0,0,0,0,0c-0.9,0-2.7,1.6-3.8,2.8
	C43.2,30.8,45.1,29.8,45.3,29.1z M36.8,19.2c1.5-0.8,3.2-0.9,4.8-0.4c2.3,0.7,4.1,2.5,4.9,4.8c0.4-0.2,0.8-0.3,1.2-0.4
	c-0.9-3.6-4.1-6.1-7.9-6.1c-0.8,0-1.6,0.1-2.4,0.4c-0.1,0.5-0.2,1-0.4,1.4C37,19,36.9,19.1,36.8,19.2z M52.6,21.6
	c-0.5-0.8-1-1.7-1.3-2.6c-0.4-1.1-0.5-2.2-0.5-3.3c0-0.8,0.1-1.7,0.3-2.5c-0.7-0.6-1.7-1-2.6-1c-1.7,0-3.1,1-3.8,2.5
	c0,0,0.1,0,0.1,0c1.1,0.5,2.1,1.2,3,2.1c1.5,1.4,2.6,3.3,3.1,5.2C51.6,21.9,52.2,21.8,52.6,21.6z M52.5,10c-1.2-0.8-2.5-1.2-4-1.2
	c-3.1,0-5.9,2-7,4.9c0.8,0.1,1.6,0.3,2.3,0.6c0.8-1.9,2.6-3.1,4.7-3.1c1.1,0,2.1,0.3,2.9,0.9C51.7,11.4,52.1,10.7,52.5,10z
	 M34.6,23.2c-0.4,1.1-0.2,2.3,0.4,3.3c0.5,0.9,1.3,1.6,2.3,1.9c1.7,0.5,3.5-0.4,4-2.1c0.4-1.3-0.3-2.7-1.6-3.1
	c-0.5-0.2-1-0.1-1.4,0.1c-0.4,0.2-0.8,0.6-0.9,1.1c-0.1,0.4-0.1,0.7,0.1,1.1c0.2,0.3,0.5,0.6,0.8,0.7c0.3,0.1,0.5,0.1,0.8-0.1
	c0.2-0.1,0.4-0.3,0.5-0.6c0.1-0.2,0-0.4,0-0.5c-0.1-0.2-0.2-0.3-0.4-0.4c-0.3-0.1-0.4-0.4-0.3-0.6c0.1-0.3,0.4-0.4,0.6-0.3
	c0.4,0.1,0.8,0.4,1,0.9c0.2,0.4,0.2,0.9,0.1,1.3c-0.2,0.5-0.5,0.9-1,1.2c-0.5,0.2-1,0.3-1.5,0.1c-0.6-0.2-1.1-0.6-1.4-1.2
	c-0.3-0.6-0.3-1.2-0.1-1.8c0.2-0.7,0.7-1.3,1.4-1.7c0.7-0.4,1.5-0.4,2.2-0.2c1.6,0.5,2.6,2.1,2.4,3.7c0.5-0.4,1.1-0.9,1.8-1.3
	c0.4-0.2,0.8-0.4,1.3-0.7c-0.7-2-2.3-3.6-4.3-4.3c-1.3-0.4-2.8-0.3-4,0.3C36,20.8,35.1,21.9,34.6,23.2z M33.4,27.4
	c-0.7,0-1.5-0.1-2.2-0.3l-0.1,0c-0.4-0.1-0.8-0.2-1.2-0.4c-0.9,0-1.7,0.3-2.3,0.8c-1.1,0.9-1.4,2.5-0.6,3.7c0.1,0.1,0.1,0.2,0.2,0.2
	c0.2,0.3,0.4,0.5,0.7,0.6c0.8,0.4,1.7,0.3,2.4-0.2c0.2-0.1,0.3-0.3,0.4-0.5c0.2-0.3,0.2-0.7,0.1-1.1c-0.1-0.2-0.2-0.5-0.3-0.7
	c-0.4-0.5-1.2-0.6-1.7-0.2c-0.3,0.2-0.4,0.7-0.2,1c0,0.1,0.1,0.1,0.1,0.2c0.1,0.1,0.3,0.2,0.4,0.2c0.2,0,0.3,0,0.4-0.1
	c0.2-0.2,0.5-0.1,0.7,0.1c0.2,0.2,0.1,0.5-0.1,0.7c-0.3,0.3-0.8,0.4-1.2,0.3c-0.4,0-0.8-0.3-1.1-0.6c-0.1-0.1-0.2-0.2-0.2-0.4
	c-0.3-0.8-0.1-1.7,0.5-2.2c1-0.8,2.4-0.6,3.1,0.4c0.3,0.3,0.4,0.7,0.5,1.1c0.1,0.6,0.1,1.2-0.2,1.8c0,0,0,0,0,0
	c2.1-0.3,3.7,0,4.4,0.1c0.2-1,0.8-1.9,1.7-2.2c0.2-0.1,0.4-0.1,0.7-0.1c-0.4,0-0.8-0.1-1.2-0.2c-1.1-0.4-2.1-1.1-2.7-2.1
	C34,27.3,33.7,27.4,33.4,27.4z M32.8,35.1c0,0,0,0.1,0,0.2c0.1,0.1,0.1,0.2,0.3,0.2c0.6,0.1,1.8-0.6,2.7-1.3
	C34.4,34.3,33,34.7,32.8,35.1z M28.4,44.4C26.8,45.4,24.9,46,23,46c-0.3,0-0.6,0-0.9,0C22,46.2,22,46.5,22,46.9
	c0,2.6,2.2,4.8,4.8,4.8c0.2,0,0.3,0,0.5,0C27.4,49,27.7,46.6,28.4,44.4z M68.1,12c0.1,0.6,0.1,1.3,0,2c5.2,1.3,9.4,5.5,10.5,10.8
	c0.6,0,1.1,0.1,1.7,0.2c0.1,0,0.2,0.1,0.3,0.1C79.6,18.6,74.6,13.4,68.1,12z M54.2,9.3c-1.5,1.8-2.4,4.1-2.4,6.4c0,1,0.2,2,0.5,3
	c0.3,1,0.8,1.8,1.3,2.6c0.5-0.1,0.9-0.2,0.9-0.3l0.6-0.2l0,0.6c0,0,0,0.4,0,0.9c0.8-1.5,2.1-2.9,3.6-3.8c-0.1-0.1-0.2-0.2-0.4-0.3
	c-0.5-0.5-0.9-1-1.2-1.6c-0.5-1-0.5-2.1-0.3-3.2c0.2-0.7,0.5-1.3,1-1.9c1.4-1.6,3.8-1.8,5.5-0.4c1.1,0.9,1.4,2.5,0.8,3.8
	c-0.1,0.3-0.3,0.5-0.5,0.7c-1,1.1-2.6,1.2-3.7,0.3c-0.7-0.6-1-1.6-0.6-2.5c0.1-0.2,0.2-0.4,0.4-0.6c0.7-0.8,1.9-0.9,2.6-0.2
	c0.2,0.2,0.2,0.5,0.1,0.7c-0.2,0.2-0.5,0.2-0.7,0.1c-0.4-0.3-0.9-0.3-1.2,0.1c-0.1,0.1-0.2,0.2-0.2,0.3c-0.2,0.5-0.1,1.1,0.3,1.4
	c0.7,0.6,1.7,0.5,2.3-0.2c0.1-0.1,0.2-0.3,0.3-0.5c0.4-0.9,0.2-2-0.5-2.6c-1.2-1-3-0.9-4,0.3c-0.4,0.4-0.6,0.9-0.8,1.5
	c-0.2,0.8-0.1,1.7,0.2,2.5c0.2,0.5,0.5,0.9,0.9,1.3c1.4,1.2,3.5,1.5,5.2,0.7c0.6-0.3,1.1-0.7,1.5-1.2c0.2-0.2,0.3-0.4,0.4-0.5
	c1.8-2.6,1.3-6-1-8c-1.6-1.4-3.6-2-5.6-1.9C57.5,6.8,55.6,7.7,54.2,9.3z M48.5,5.5c-2.9,0-5.6,1.1-7.5,3c0,0,0,0,0,0
	c0,0-0.1,0.1-0.1,0.1c-1.4,1.4-2.4,3.1-2.8,5.1c0.6-0.1,1.2-0.1,1.8-0.1c0.2,0,0.4,0,0.6,0c1.1-3.4,4.4-5.8,8-5.8
	c1.6,0,3.2,0.5,4.5,1.3c0.1-0.2,0.3-0.4,0.4-0.5c0.4-0.4,0.8-0.8,1.2-1.2C52.9,6.2,50.8,5.5,48.5,5.5z M33.7,11.2
	c1.3,0.5,2.4,1.5,3.1,2.8c0,0,0.1,0,0.1,0c0.4-2.2,1.5-4.1,2.9-5.6c-0.6-0.4-1.4-0.6-2.1-0.6C35.7,7.7,34,9.2,33.7,11.2z M25,17.7
	c-0.2,2.2,0.7,4.4,2.2,6c0.5,0.6,1.2,1.1,1.8,1.5c0.4,0.2,0.8,0.4,1.2,0.6c0.4,0.2,0.8,0.3,1.2,0.4l0.1,0c0.7,0.2,1.5,0.3,2.3,0.2
	c-0.4-1.1-0.5-2.3-0.1-3.4c0.2-0.6,0.5-1.1,0.8-1.6c-0.2,0.1-0.3,0.2-0.5,0.2c-0.7,0.2-1.3,0.3-1.9,0.2c-1-0.1-1.9-0.6-2.5-1.3
	l-0.1-0.1c-0.4-0.4-0.7-0.9-0.9-1.5c-0.3-0.8-0.2-1.6,0.1-2.4c0.4-0.9,1.2-1.7,2.1-2c1.2-0.4,2.6,0.1,3.3,1.2
	c0.1,0.2,0.3,0.4,0.3,0.7c0.1,0.4,0.1,0.8,0.1,1.2c-0.2,0.9-0.8,1.5-1.6,1.8c-0.8,0.3-1.7,0-2.2-0.7c-0.1-0.2-0.2-0.4-0.3-0.6
	c-0.2-0.6-0.1-1.2,0.3-1.6c0.2-0.2,0.5-0.4,0.8-0.5c0.3-0.1,0.5,0.1,0.6,0.3c0.1,0.3-0.1,0.5-0.3,0.6c-0.1,0-0.2,0.1-0.3,0.2
	c-0.2,0.2-0.2,0.5-0.2,0.7c0,0.1,0.1,0.2,0.1,0.3c0.3,0.4,0.7,0.5,1.1,0.4c0.5-0.2,0.8-0.6,0.9-1.1c0-0.2,0-0.5,0-0.7
	c0-0.1-0.1-0.3-0.2-0.4c-0.5-0.7-1.3-1-2.1-0.8c-0.7,0.2-1.3,0.7-1.5,1.4c-0.2,0.5-0.3,1.1-0.1,1.7c0.1,0.5,0.4,0.9,0.7,1.2
	c0.6,0.6,1.2,0.9,2,1c0.5,0.1,0.9,0,1.4-0.1c1.1-0.4,2-1.1,2.5-2.2c0.2-0.4,0.3-0.9,0.4-1.4c0.1-0.6,0-1.1-0.2-1.7
	c-0.1-0.2-0.1-0.4-0.2-0.6c-1.1-2.5-3.9-3.7-6.4-2.9C27.1,12.7,25.3,15,25,17.7z M17.1,29.6c0,0.6,0.1,1.2,0.1,1.8
	c0.7-0.5,1.5-0.8,2.3-0.9c0-0.3-0.1-0.6-0.1-0.9c0-3.6,1.9-6.8,4.9-8.6c0,0-0.3-1.1-0.3-1.2c-0.1-0.4-0.1-0.9-0.1-1.4
	C19.8,20.5,17.1,24.8,17.1,29.6z M15,37.8c0,1.8,0.8,3.5,2.1,4.8c3.3,3.2,8.5,3.2,11.8,0.1c0.2-0.6,0.5-1.2,0.7-1.8
	c-1.9,0.6-3.5,0.8-4.9,0.8c-2,0-3.2-0.4-3.4-0.4L21,41.1l0-0.4c0,0,0-0.1,0-0.2c-0.7-0.2-1.3-0.5-1.8-1c-0.7-0.6-1-1.5-1.1-2.4
	c0-0.9,0.3-1.8,1-2.5c0.5-0.6,1.3-0.9,2-0.9c0.8,0,1.5,0.3,2.1,0.8c0.2,0.2,0.4,0.5,0.5,0.8c0.4-0.4,0.9-0.8,1.5-1.2
	c-0.2-0.5-0.5-0.9-0.9-1.2c-0.3-0.3-0.6-0.5-0.9-0.7c-1-0.6-2.1-0.9-3.3-0.7c-1.1,0.1-2.1,0.5-2.9,1.3c-0.1,0.1-0.3,0.2-0.4,0.3
	C15.6,34.3,14.9,36,15,37.8z M23.3,57c0.5-0.7,1.2-1.3,2-1.8c-4-0.7-7-4.2-7-8.3c0-0.7,0.1-1.3,0.3-2c-0.8-0.4-1.5-0.9-2.2-1.6
	c0,0,0,0,0,0c-0.4,1.1-0.6,2.3-0.6,3.4C15.8,51.4,18.9,55.6,23.3,57z M28.6,64.9c-0.3-0.4-0.6-0.8-0.8-1.3c-0.1,0-0.1,0-0.2,0
	c-0.3,0-0.6-0.1-0.8-0.2c-0.6-0.3-1.1-0.8-1.4-1.4c-0.3-0.6-0.3-1.3,0-2c0.3-0.8,0.9-1.4,1.7-1.7c0,0,0-0.1,0-0.1
	c0.3-0.4,0.8-0.9,1.8-1c-0.1-0.7-0.2-1.4-0.2-2.1c-2.3,0.1-4.4,1.5-5.3,3.7c-0.5,1.1-0.5,2.4,0,3.5c0.5,1.1,1.4,2,2.5,2.5
	C26.8,65.3,27.8,65.3,28.6,64.9z M26.3,60.5c-0.2,0.4-0.2,0.8,0,1.2c0.2,0.4,0.5,0.7,0.9,0.9c0,0,0.1,0,0.1,0
	c-0.4-1.1-0.6-2-0.6-2.7C26.5,60.1,26.4,60.3,26.3,60.5z M30.9,65.6c-0.2-0.6-0.4-1.1-0.6-1.7c-0.5-1.5-0.9-3.1-1.2-4.7
	c0-0.3-0.1-0.5-0.1-0.8c-0.5,0-0.9,0.2-1.1,0.5c-0.4,0.7-0.2,2,0.5,3.8C29,64.1,30,65.2,30.9,65.6z M71.5,53.4
	c-6.5-3.9-13.8-6-21.4-6c-7.2,0-14.3,1.9-20.5,5.4c0,0.7,0,1.3,0.1,1.9c0.1,1.4,0.2,2.9,0.5,4.3c0.3,1.5,0.7,3.1,1.1,4.6
	c3.6,11.1,12.7,18.6,18.8,18.6C57.4,82.2,71.3,70,71.5,53.4z M72.3,62.7c0.8-1.8,0.9-3.1,0.5-3.8c-0.2-0.2-0.4-0.4-0.7-0.5
	c-0.4,2.5-1.1,4.8-2,7C70.9,65,71.7,64,72.3,62.7z M78,60.4c-0.3,0.1-0.5,0.1-0.8,0.1c-0.8,1.7-2.3,2.8-4.1,3
	c-0.1,0.2-0.2,0.5-0.4,0.7C75.1,64.1,77.1,62.6,78,60.4z M79.3,51.9c-0.7-0.7-1.6-1.2-2.5-1.4c-0.3,0-0.7-0.1-1-0.2c0,0-0.1,0-0.1,0
	l0,0c-0.5-0.1-1-0.3-1.5-0.6c-0.4-0.2-0.8-0.5-1.1-0.8c0.3,1.5,0.5,3.1,0.7,4.8c0,0,0,0,0,0c0,0,0,0,0,0c0,0,0,0,0,0
	c0,0,0,0.1,0,0.1c0.6-0.6,1.3-0.9,2.1-0.9c0.8,0,1.6,0.3,2.2,0.8c0.9,0.8,1.1,2.1,0.5,3.1c-0.1,0.2-0.2,0.4-0.4,0.5
	c-0.4,0.4-0.9,0.7-1.5,0.7c-0.6,0-1.1-0.2-1.6-0.6c-0.2-0.2-0.2-0.5,0-0.7c0.2-0.2,0.5-0.2,0.7,0c0.2,0.2,0.5,0.3,0.8,0.3
	c0.3,0,0.6-0.1,0.8-0.4c0.1-0.1,0.2-0.2,0.2-0.3c0.4-0.6,0.2-1.4-0.3-1.9c-0.4-0.4-1-0.6-1.5-0.6c-0.6,0-1.1,0.3-1.5,0.7
	c-0.3,0.3-0.5,0.7-0.6,1.1c-0.2,0.6-0.2,1.3,0.1,1.9c0.2,0.4,0.4,0.7,0.7,1c1,1,2.6,1.2,3.9,0.7c0.4-0.2,0.8-0.5,1.2-0.8l0-0.1
	c0.1-0.1,0.2-0.2,0.3-0.3C81.2,56.1,81,53.5,79.3,51.9z M85,44.4c0-3.5-2.9-6.4-6.4-6.4c-1.4,0-2.7,0.5-3.8,1.3c0.5,0.4,1,0.8,1.6,1
	c0.4-0.2,0.8-0.4,1.2-0.5c0.2,0,0.4-0.1,0.6-0.1c2.4-0.3,4.6,1.3,5.1,3.7c0.4,1.5,0.1,3.1-0.7,4.4c-0.8,1.3-2.1,2.3-3.6,2.6
	c0,0-0.1,0-0.1,0c0.2,0.1,0.3,0.2,0.4,0.3C82.6,50.3,85,47.6,85,44.4z"/>
</svg>
