<?xml version="1.0" encoding="utf-8"?>
<!-- Generator: Adobe Illustrator 23.0.2, SVG Export Plug-In . SVG Version: 6.00 Build 0)  -->
<svg version="1.1" id="Layer_1" xmlns="http://www.w3.org/2000/svg" xmlns:xlink="http://www.w3.org/1999/xlink" x="0px" y="0px"
	 viewBox="0 0 100 100" style="enable-background:new 0 0 100 100;" xml:space="preserve">
<style type="text/css">
	.st0{fill:#CC8D8D;}
</style>
<g>
	<path class="st0" d="M46.4,28.6H29.1c-0.6,0-1,0.4-1,1v61.5c0,0.6,0.4,1,1,1h17.3c0.6,0,1-0.4,1-1V29.6
		C47.4,29,46.9,28.6,46.4,28.6z M45.4,31.8c-1.4,1.4-2.7,2.7-4.1,4.1c-0.3,0.3,0.2,0.7,0.4,0.4c1.2-1.2,2.4-2.4,3.7-3.7V39
		c0,0-0.1,0-0.1,0.1c-1.4,1.4-2.8,2.8-4.2,4.2c-0.3,0.3,0.2,0.7,0.4,0.4c1.3-1.3,2.6-2.6,3.9-3.9v2.6c0,0-0.1,0-0.1,0.1
		c-1.8,1.8-3.6,3.6-5.3,5.3c-0.3,0.3,0.2,0.7,0.4,0.4c1.7-1.7,3.4-3.4,5.1-5.1v5.8c-0.1-0.1-0.2-0.1-0.3,0.1
		c-1.5,1.5-2.9,2.9-4.4,4.4c-0.3,0.3,0.2,0.7,0.4,0.4c1.4-1.4,2.8-2.8,4.3-4.3v2.2c0,0-0.1,0-0.1,0.1c-1.3,1.3-2.6,2.6-4,4
		c-0.3,0.3,0.2,0.7,0.4,0.4c1.2-1.2,2.4-2.4,3.7-3.7v2.1c-1.6,1.6-3.1,3.1-4.7,4.7c-0.3,0.3,0.2,0.7,0.4,0.4
		c1.4-1.4,2.8-2.8,4.3-4.3V63c-0.1-0.1-0.2,0-0.3,0.1c-0.8,0.8-1.6,1.6-2.4,2.4c-0.3,0.3,0.2,0.7,0.4,0.4c0.8-0.8,1.5-1.5,2.3-2.3
		v2.8c0,0-0.1,0-0.1,0.1c-1.2,1.2-2.4,2.4-3.6,3.6c-0.3,0.3,0.2,0.7,0.4,0.4c1.1-1.1,2.2-2.2,3.3-3.3v2.1c-1.6,1.6-3.3,3.3-4.9,4.9
		c-0.3,0.3,0.2,0.7,0.4,0.4c1.5-1.5,3-3,4.5-4.5v2.3c-1.3,1.3-2.6,2.6-3.9,3.9c-0.3,0.3,0.2,0.7,0.4,0.4c1.2-1.2,2.3-2.3,3.5-3.5v2
		c0,0-0.1,0-0.1,0.1c-0.9,0.9-1.7,1.7-2.6,2.6c-0.3,0.3,0.2,0.7,0.4,0.4c0.8-0.8,1.5-1.5,2.3-2.3v1.9c-1.3,1.3-2.6,2.6-3.9,3.9
		c-0.3,0.3,0.2,0.7,0.4,0.4c1.2-1.2,2.3-2.3,3.5-3.5v11.3h-4.8c1.1-1.1,2.2-2.2,3.3-3.3c0.3-0.3-0.2-0.7-0.4-0.4
		c-1.2,1.2-2.4,2.4-3.6,3.6c0,0-0.1,0.1-0.1,0.1h-2.4c1-1,2.1-2.1,3.1-3.1c0.3-0.3-0.2-0.7-0.4-0.4c-1.2,1.2-2.3,2.3-3.5,3.5h-3.1
		c1.2-1.2,2.3-2.3,3.5-3.5c0.3-0.3-0.2-0.7-0.4-0.4c-1.3,1.3-2.6,2.6-3.9,3.9h-2.5v-0.8c1.1-1.1,2.2-2.2,3.3-3.3
		c0.3-0.3-0.2-0.7-0.4-0.4c-0.9,0.9-1.8,1.8-2.7,2.7c0-0.7,0-1.4,0-2.1c1.3-1.3,2.6-2.6,3.9-3.9c0.3-0.3-0.2-0.7-0.4-0.4
		c-1.2,1.2-2.4,2.4-3.6,3.6c0,0-0.1,0-0.1,0v-1.8c1.5-1.5,3-3,4.5-4.5c0.3-0.3-0.2-0.7-0.4-0.4c-1.4,1.4-2.7,2.7-4.1,4.1V80
		c1-1,1.9-1.9,2.9-2.9c0.3-0.3-0.2-0.7-0.4-0.4c-0.8,0.8-1.7,1.7-2.5,2.5v-1.7c1.1-1.1,2.2-2.2,3.3-3.3c0.3-0.3-0.2-0.7-0.4-0.4
		c-1,1-1.9,1.9-2.9,2.9v-2.3c1-1,1.9-1.9,2.9-2.9c0.3-0.3-0.2-0.7-0.4-0.4c-0.8,0.8-1.7,1.7-2.5,2.5v-2.7c1.6-1.6,3.1-3.1,4.7-4.7
		c0.3-0.3-0.2-0.7-0.4-0.4c-1.4,1.4-2.8,2.8-4.3,4.3v-3.1c0.9-0.9,1.8-1.8,2.7-2.7c0.3-0.3-0.2-0.7-0.4-0.4
		c-0.8,0.8-1.5,1.5-2.3,2.3V64c1.6-1.6,3.1-3.1,4.7-4.7c0.3-0.3-0.2-0.7-0.4-0.4c-1.4,1.4-2.8,2.8-4.3,4.3v-2.5c1-1,1.9-1.9,2.9-2.9
		c0.3-0.3-0.2-0.7-0.4-0.4c-0.8,0.8-1.7,1.7-2.5,2.5v-2.3c1.2-1.2,2.3-2.3,3.5-3.5c0.3-0.3-0.2-0.7-0.4-0.4c-1,1-2.1,2.1-3.1,3.1
		v-1.9c0.8-0.8,1.5-1.5,2.3-2.3c0.3-0.3-0.2-0.7-0.4-0.4c-0.6,0.6-1.3,1.3-1.9,1.9v-2.1c1.5-1.5,3-3,4.5-4.5
		c0.3-0.3-0.2-0.7-0.4-0.4c-1.4,1.4-2.7,2.7-4.1,4.1v-3.1c1.5-1.5,3-3,4.5-4.5c0.3-0.3-0.2-0.7-0.4-0.4c-1.4,1.4-2.7,2.7-4.1,4.1
		v-2.7c1-1,2.1-2.1,3.1-3.1c0.3-0.3-0.2-0.7-0.4-0.4c-0.9,0.9-1.8,1.8-2.7,2.7v-2.5c1.1-1.1,2.2-2.2,3.3-3.3
		c0.3-0.3-0.2-0.7-0.4-0.4c-0.9,0.9-1.8,1.8-2.7,2.7c0-0.7,0-1.4,0-2.1c1-1,1.9-1.9,2.9-2.9c0.3-0.3-0.2-0.7-0.4-0.4
		c-0.8,0.8-1.7,1.7-2.5,2.5c0-0.1-0.1-0.2-0.2-0.2V35c0.1,0.1,0.2,0.1,0.3-0.1c0.8-0.8,1.6-1.6,2.4-2.4c0.3-0.3-0.2-0.7-0.4-0.4
		c-0.8,0.8-1.5,1.5-2.3,2.3v-3.8h6c-0.4,0.4-0.8,0.8-1.2,1.2c-0.3,0.3,0.2,0.7,0.4,0.4c0.4-0.4,0.8-0.8,1.2-1.2
		c0.1-0.1,0.1-0.3,0-0.4h3.3c-0.3,0.3-0.6,0.6-1,1c-0.3,0.3,0.2,0.7,0.4,0.4c0.3-0.3,0.7-0.7,1-1c0.1-0.1,0.1-0.3,0-0.4h5.1
		L45.4,31.8L45.4,31.8z"/>
	<path class="st0" d="M70.9,49.4h-7.7V26.1h3.5c0.6,0,1-0.4,1-1s-0.4-1-1-1h-3.5v-2.5h5.6c0.6,0,1-0.4,1-1s-0.4-1-1-1h-5.6v-2.5H70
		c0.6,0,1-0.4,1-1s-0.4-1-1-1h-6.8v-2.5h3.5c0.6,0,1-0.4,1-1s-0.4-1-1-1h-3.5V8.9c0-0.6-0.4-1-1-1s-1,0.4-1,1v1.8h-3.5
		c-0.6,0-1,0.4-1,1s0.4,1,1,1h3.5v2.5h-6.7c-0.6,0-1,0.4-1,1s0.4,1,1,1h6.7v2.5h-5.6c-0.6,0-1,0.4-1,1s0.4,1,1,1h5.6v2.5h-3.5
		c-0.6,0-1,0.4-1,1s0.4,1,1,1h3.5v23.3h-7.6c-0.6,0-1,0.4-1,1v40.7c0,0.6,0.4,1,1,1h17.3c0.6,0,1-0.4,1-1V50.4
		C71.9,49.8,71.5,49.4,70.9,49.4z M69.9,57.7c-1.1,1.1-2.2,2.2-3.3,3.3c-0.3,0.3,0.2,0.7,0.4,0.4c1-1,1.9-1.9,2.9-2.9v12.8
		c-1.2,1.2-2.3,2.3-3.5,3.5c-0.3,0.3,0.2,0.7,0.4,0.4c1-1,2-2,3.1-3.1V79c0,0-0.1,0-0.1,0.1c-1.3,1.3-2.6,2.6-4,4
		c-0.3,0.3,0.2,0.7,0.4,0.4c1.2-1.2,2.4-2.4,3.7-3.7v10.3h-6.1c1.2-1.2,2.3-2.3,3.5-3.5c0.3-0.3-0.2-0.7-0.4-0.4
		c-1.2,1.2-2.4,2.4-3.6,3.6c-0.1,0.1-0.1,0.2-0.1,0.3h-7c1.1-1.1,2.2-2.2,3.3-3.3c0.3-0.3-0.2-0.7-0.4-0.4c-1.2,1.2-2.4,2.4-3.6,3.6
		c0,0-0.1,0.1-0.1,0.1h-0.8v-0.6c0.9-0.9,1.8-1.8,2.7-2.7c0.3-0.3-0.2-0.7-0.4-0.4c-0.8,0.8-1.5,1.5-2.3,2.3v-0.9
		c1.2-1.2,2.3-2.3,3.5-3.5c0.3-0.3-0.2-0.7-0.4-0.4c-1,1-2.1,2.1-3.1,3.1v-1.1c1.2-1.2,2.5-2.5,3.7-3.7c0.3-0.3-0.2-0.7-0.4-0.4
		c-1.1,1.1-2.2,2.2-3.3,3.3v-1.5c1.1-1.1,2.2-2.2,3.3-3.3c0.3-0.3-0.2-0.7-0.4-0.4c-1,1-1.9,1.9-2.9,2.9v-1.3
		c1.2-1.2,2.3-2.3,3.5-3.5c0.3-0.3-0.2-0.7-0.4-0.4c-1,1-2.1,2.1-3.1,3.1v-1.7c1.2-1.2,2.5-2.5,3.7-3.7c0.3-0.3-0.2-0.7-0.4-0.4
		c-1.1,1.1-2.2,2.2-3.3,3.3v-1.1c1.4-1.4,2.7-2.7,4.1-4.1c0.3-0.3-0.2-0.7-0.4-0.4c-1.2,1.2-2.5,2.5-3.7,3.7v-2.1
		c0.8-0.8,1.6-1.6,2.3-2.3c0.3-0.3-0.2-0.7-0.4-0.4c-0.6,0.6-1.3,1.3-1.9,1.9v-1.9c1.2-1.2,2.5-2.5,3.7-3.7c0.3-0.3-0.2-0.7-0.4-0.4
		c-1.1,1.1-2.2,2.2-3.3,3.3v-2.1c1.3-1.3,2.6-2.6,3.9-3.9c0.3-0.3-0.2-0.7-0.4-0.4c-1.2,1.2-2.3,2.3-3.5,3.5v-2.8
		c0.1,0,0.1,0,0.1-0.1c1.2-1.2,2.4-2.4,3.6-3.6c0.3-0.3-0.2-0.7-0.4-0.4c-1.1,1.1-2.2,2.2-3.3,3.3v-2c0.1,0,0.1,0,0.1-0.1
		c0.9-0.9,1.8-1.8,2.8-2.8c0.3-0.3-0.2-0.7-0.4-0.4c-0.8,0.8-1.7,1.7-2.5,2.5v-9.4H61c-0.4,0.4-0.9,0.9-1.3,1.3
		c-0.3,0.3,0.2,0.7,0.4,0.4c0.6-0.6,1.2-1.2,1.8-1.8h1.7c-0.9,0.9-1.8,1.8-2.7,2.7c-0.3,0.3,0.2,0.7,0.4,0.4c1-1,2.1-2.1,3.1-3.1H66
		c-1.7,1.7-3.4,3.4-5.1,5.1c-0.3,0.3,0.2,0.7,0.4,0.4c1.8-1.8,3.7-3.7,5.5-5.5h1.7c-1.6,1.6-3.1,3.1-4.7,4.7
		c-0.3,0.3,0.2,0.7,0.4,0.4c1.6-1.6,3.2-3.2,4.8-4.8c0.1-0.1,0.1-0.3,0-0.4h0.9L69.9,57.7L69.9,57.7z"/>
	<path class="st0" d="M32.4,24.9H43c0.6,0,1-0.4,1-1s-0.4-1-1-1H32.4c-0.6,0-1,0.4-1,1S31.9,24.9,32.4,24.9z"/>
	<path class="st0" d="M40.9,33.7c0.9-0.9,1.7-1.7,2.6-2.6c0.3-0.3-0.2-0.7-0.4-0.4c-0.9,0.9-1.7,1.7-2.6,2.6
		C40.2,33.6,40.6,34,40.9,33.7z"/>
	<path class="st0" d="M41.5,40.1c1.1-1.1,2.1-2.1,3.2-3.2c0.3-0.3-0.2-0.7-0.4-0.4c-1.1,1.1-2.1,2.1-3.2,3.2
		C40.8,39.9,41.2,40.3,41.5,40.1z"/>
	<path class="st0" d="M41.3,50.2c1-1,2-2,3-3c0.3-0.3-0.2-0.7-0.4-0.4c-1,1-2,2-3,3C40.6,50,41,50.4,41.3,50.2z"/>
	<path class="st0" d="M42.3,61.5c0.8-0.8,1.6-1.6,2.4-2.4c0.3-0.3-0.2-0.7-0.4-0.4c-0.8,0.8-1.6,1.6-2.4,2.4
		C41.6,61.3,42,61.7,42.3,61.5z"/>
	<path class="st0" d="M40.9,65.8c1.5-1.5,2.9-2.9,4.4-4.4c0.3-0.3-0.2-0.7-0.4-0.4c-1.5,1.5-2.9,2.9-4.4,4.4
		C40.2,65.7,40.6,66.1,40.9,65.8z"/>
	<path class="st0" d="M42.1,84.8c0.8-0.8,1.6-1.6,2.4-2.4c0.3-0.3-0.2-0.7-0.4-0.4c-0.8,0.8-1.6,1.6-2.4,2.4
		C41.4,84.7,41.8,85.1,42.1,84.8z"/>
	<path class="st0" d="M57.9,54.5c-1.1,1.1-2.1,2.1-3.2,3.2c-0.3,0.3,0.2,0.7,0.4,0.4c1.1-1.1,2.1-2.1,3.2-3.2
		C58.6,54.6,58.2,54.2,57.9,54.5z"/>
	<path class="st0" d="M55.4,54.9c0.6-0.6,1.2-1.2,1.8-1.8c0.3-0.3-0.2-0.7-0.4-0.4c-0.6,0.6-1.2,1.2-1.8,1.8
		C54.7,54.8,55.1,55.2,55.4,54.9z"/>
	<path class="st0" d="M61.1,86.2c-1.1,1.1-2.1,2.1-3.2,3.2c-0.3,0.3,0.2,0.7,0.4,0.4c1.1-1.1,2.1-2.1,3.2-3.2
		C61.8,86.3,61.4,85.9,61.1,86.2z"/>
	<path class="st0" d="M62.9,87c-0.9,0.9-1.7,1.7-2.6,2.6c-0.3,0.3,0.2,0.7,0.4,0.4c0.9-0.9,1.7-1.7,2.6-2.6
		C63.6,87.1,63.1,86.7,62.9,87z"/>
	<path class="st0" d="M68.2,88.2c-0.5,0.5-0.9,0.9-1.4,1.4c-0.3,0.3,0.2,0.7,0.4,0.4c0.5-0.5,0.9-0.9,1.4-1.4
		C68.9,88.3,68.5,87.9,68.2,88.2z"/>
	<path class="st0" d="M66.5,56.9c1.1-1.1,2.1-2.1,3.2-3.2c0.3-0.3-0.2-0.7-0.4-0.4c-1.1,1.1-2.1,2.1-3.2,3.2
		C65.8,56.8,66.2,57.2,66.5,56.9z"/>
	<path class="st0" d="M69.2,56.3c-1.3,1.3-2.5,2.5-3.8,3.8c-0.3,0.3,0.2,0.7,0.4,0.4c1.3-1.3,2.5-2.5,3.8-3.8
		C69.9,56.4,69.5,56,69.2,56.3z"/>
	<path class="st0" d="M66.3,65.6c1.2-1.2,2.4-2.4,3.6-3.6c0.3-0.3-0.2-0.7-0.4-0.4c-1.2,1.2-2.4,2.4-3.6,3.6
		C65.6,65.5,66,65.9,66.3,65.6z"/>
	<path class="st0" d="M66.9,68c0.8-0.8,1.6-1.6,2.4-2.4c0.3-0.3-0.2-0.7-0.4-0.4c-0.8,0.8-1.6,1.6-2.4,2.4
		C66.2,67.8,66.6,68.3,66.9,68z"/>
	<path class="st0" d="M69.2,68c-0.9,0.9-1.8,1.8-2.8,2.8c-0.3,0.3,0.2,0.7,0.4,0.4c0.9-0.9,1.8-1.8,2.8-2.8
		C69.9,68.1,69.5,67.7,69.2,68z"/>
	<path class="st0" d="M66.9,77.7c1-1,2-2,3-3c0.3-0.3-0.2-0.7-0.4-0.4c-1,1-2,2-3,3C66.2,77.6,66.6,78,66.9,77.7z"/>
	<path class="st0" d="M69.4,76.7c-1.2,1.2-2.4,2.4-3.6,3.6c-0.3,0.3,0.2,0.7,0.4,0.4c1.2-1.2,2.4-2.4,3.6-3.6
		C70.1,76.8,69.7,76.4,69.4,76.7z"/>
	<path class="st0" d="M67.5,85.4c0.6-0.6,1.2-1.2,1.8-1.8c0.3-0.3-0.2-0.7-0.4-0.4c-0.6,0.6-1.2,1.2-1.8,1.8
		C66.8,85.3,67.2,85.7,67.5,85.4z"/>
</g>
</svg>
