<?xml version="1.0" encoding="utf-8"?>
<!-- Generator: Adobe Illustrator 23.0.2, SVG Export Plug-In . SVG Version: 6.00 Build 0)  -->
<svg version="1.1" id="Layer_1" xmlns="http://www.w3.org/2000/svg" xmlns:xlink="http://www.w3.org/1999/xlink" x="0px" y="0px"
	 viewBox="0 0 100 100" style="enable-background:new 0 0 100 100;" xml:space="preserve">
<style type="text/css">
	.st0{fill:#CC8D8D;}
</style>
<title>hand_nail_Beauty_Cosmetics_Fingernail_Manicure</title>
<g>
	<path class="st0" d="M51.8,54.7c-7.3,5-18.6-0.1-26.5-0.9c-3.2-0.5-6.4-0.4-9.6,0.2c-4.1,1.7-8.4,3-12.7,3.9l0,0.2
		c3.4,0.7,6.9,0.5,10.1-0.8c1.6-0.5,3.2-1,4.8-1.4c-0.3,7.8,11.2,9.4,16.1,12.9c3,2.2,5.4,5.8,9.2,6.7c2.5,0.8,5.2-0.3,6.5-2.6
		c0.1-0.2,0-0.4-0.2-0.4c-0.1,0-0.2,0-0.2,0c-7,3.3-10.2-4.2-15.3-7.2c-5.3-3.1-11.8-3.7-14.3-9.7c1-0.2,2-0.2,3-0.2
		c2.4,0.2,4.8,0.6,7.2,1.2c6.5,1.5,17.9,5.6,22.6-1.5c0.1-0.1,0.1-0.3-0.1-0.4C52.1,54.6,51.9,54.6,51.8,54.7z"/>
	<path class="st0" d="M84.8,82.6c-4.6,0.3-9.1-1.3-12.3-4.6c-2.6-3.1-4.7-6.7-6.2-10.6c-1.5-4.2-3.6-8.2-6.4-11.7
		c0.5,0.1,1,0.3,1.5,0.4c3.9,1.2,8.1,0.5,11.3-2c0.1-0.2,0.1-0.4-0.1-0.5c-0.1,0-0.1-0.1-0.2-0.1c-2.1,0.1-4.1,0.4-6.1,0.7
		c-3.2,0.1-6.4-0.6-9.4-2c-4.8-2.1-9.4-4.5-14.4-6.2c-9.6-3.6-19.9-4.7-30-3.3c0,0-0.1,0-0.1,0.1c0,0,0,0.1,0.1,0.1
		c12,0.8,23.8,3.3,35,7.6c3.2,1.4,6.3,3.1,9.5,4.4c5.3,5.5,6.8,15,10.8,21.3c3.2,5.2,10.6,11.7,17.2,8.5
		C85.9,84.2,85.9,82.7,84.8,82.6z"/>
	<path class="st0" d="M74.7,50.4c-4.4-2.6-8.6-5.5-13.1-7.9c-4.8-2.6-9.6-5.2-14.5-7.6c-9.4-4.1-19.6-5.9-29.8-5.3
		c-0.1,0-0.2,0.2,0,0.2c10.2,0.7,20.3,3.3,29.6,7.5c4.4,2.2,8.8,4.6,13.2,6.9c4.7,2.5,9.6,4.4,14.4,6.6C74.7,51,74.9,50.5,74.7,50.4
		z"/>
	<path class="st0" d="M78.7,45.6c-2.6-4-6-7.3-10-9.9c-4-3.1-8.4-5.9-12.9-8.3c-9.3-4.9-19.5-7.9-30-8.7c-0.1,0-0.2,0.1-0.2,0.2
		c0,0.1,0.1,0.2,0.2,0.2c9.9,2.2,19.5,5.7,28.6,10.4c4.5,2.4,8.8,5.1,12.9,8.2c3.4,3.1,7,6,10.8,8.7C78.4,46.6,78.9,46,78.7,45.6z"
		/>
	<path class="st0" d="M63.4,23.5c-8.1-5.3-17.2-9-26.7-10.8c-0.1,0-0.1,0-0.1,0.1c0,0,0,0.1,0.1,0.1c7.9,2.8,15.5,6.4,22.7,10.6
		c6.6,4,17.1,9.8,17.4,18.3c0,0.6,0.8,0.6,1,0.1C81,34,68.6,27,63.4,23.5z"/>
	<path class="st0" d="M70.2,84c-3.1-0.2-6.2-1.1-8.9-2.8c-2.5-1.9-4.6-4.3-6.2-7c-2.7-4.6-5.9-8.8-9.6-12.7
		c-0.1-0.1-0.4,0.1-0.3,0.3c4.7,5.7,6.4,13.2,11.5,18.7c3.2,3.4,8.8,7.1,13.7,5.1c0.4-0.2,0.6-0.7,0.4-1.1
		C70.7,84.2,70.5,84.1,70.2,84z"/>
	<path class="st0" d="M84.7,79.6c-1.8-4.2-4.1-8.1-6.7-11.8c-2-3.6-4.1-7.1-6.2-10.7c-0.2-0.3-0.5,0-0.4,0.3
		c1.5,4.5,3.4,8.9,5.7,13.1c1.6,3.7,3.8,7,6.7,9.8C84.3,80.7,84.9,80.1,84.7,79.6z"/>
	<path class="st0" d="M87.4,66.5c-2-4.5-4.6-8.8-7.6-12.8c0-0.1-0.1-0.1-0.2,0c0,0-0.1,0.1,0,0.1c1.8,4.5,4.2,8.8,6,13.4
		C87,72,88.8,76.6,90.8,81c0.2,0.4,0.7,0.6,1.1,0.4c0.3-0.1,0.5-0.5,0.5-0.8C91.6,75.6,89.9,70.9,87.4,66.5z"/>
	<path class="st0" d="M95.7,71.9c-2.8-6.5-6.5-12.6-11-18.1c0-0.1-0.1-0.1-0.2,0c0,0-0.1,0.1,0,0.1c2.4,6.7,5.8,12.9,10.1,18.6
		c0.2,0.3,0.6,0.3,0.9,0.1C95.7,72.5,95.8,72.2,95.7,71.9z"/>
	<path class="st0" d="M80,44.1c0.9,0.3,1.9-0.2,2.3-1.1c0-0.1,0.1-0.2,0.1-0.4c-0.1-2-0.9-3.8-2.4-5.2c-1.3-1.4-2.7-2.8-4.2-4
		l-0.3-0.2c-0.6-0.6-1.6-0.5-2.2,0.1c-0.1,0.1-0.2,0.3-0.3,0.5c-1.1,2.1,0.4,4.8,1.6,6.5C75.9,42.1,77.8,43.5,80,44.1z"/>
	<path class="st0" d="M79.2,51.3c1,0.1,1.9-0.6,2-1.6c0-0.1,0-0.3,0-0.4c-0.1-1.9-2-3.5-3.4-4.5c-1.6-1.1-3.2-2.2-4.9-3l-0.3-0.1
		c-0.7-0.4-1.7-0.2-2.1,0.6c-0.1,0.2-0.2,0.3-0.2,0.5c-0.6,2.3,1.4,4.6,3,6C74.8,50.2,76.9,51.2,79.2,51.3z"/>
	<path class="st0" d="M75.2,55c1-0.1,1.7-1,1.6-2c0-0.1,0-0.3-0.1-0.4c-0.5-1.9-2.7-3-4.3-3.8c-1.8-0.8-3.6-1.5-5.5-2l-0.3-0.1
		c-0.8-0.3-1.7,0.2-2,1c-0.1,0.2-0.1,0.4-0.1,0.5c-0.1,2.4,2.3,4.3,4.2,5.4C70.7,54.9,72.9,55.3,75.2,55z"/>
	<path class="st0" d="M83.5,85.5c0.9,0.4,2-0.1,2.3-1c0-0.1,0.1-0.2,0.1-0.4c0-2-0.7-3.9-2.1-5.3c-1.2-1.5-2.6-2.9-4-4.3l-0.3-0.2
		c-0.6-0.6-1.6-0.6-2.2,0c-0.1,0.1-0.2,0.3-0.3,0.4c-1.2,2.1,0.2,4.9,1.3,6.7C79.6,83.4,81.4,84.8,83.5,85.5z"/>
	<path class="st0" d="M89.4,83.5c0.8,0.6,1.9,0.4,2.5-0.5c0.1-0.1,0.1-0.2,0.2-0.3c0.5-1.9,0.1-4-0.9-5.7c-0.9-1.8-1.8-3.4-3-5
		L88,71.7c-0.5-0.7-1.4-0.9-2.1-0.5c-0.2,0.1-0.3,0.2-0.4,0.4c-1.6,1.8-0.9,4.8-0.2,6.8C86,80.5,87.5,82.3,89.4,83.5z"/>
	<path class="st0" d="M95.2,76.6c0.6,0.3,1.4,0,1.7-0.6c0-0.1,0.1-0.2,0.1-0.3c0.1-1.4-0.3-2.9-1.2-4c-0.8-1.2-1.7-2.3-2.6-3.3
		L93,68.3c-0.4-0.5-1.1-0.5-1.6-0.1c-0.1,0.1-0.2,0.2-0.2,0.3c-1,1.4-0.1,3.5,0.6,4.9C92.4,74.8,93.7,76,95.2,76.6z"/>
	<path class="st0" d="M52.9,57.2c1-0.1,1.7-1.1,1.5-2c0-0.1-0.1-0.3-0.1-0.4c-0.6-1.8-2.9-2.8-4.5-3.5c-1.8-0.7-3.7-1.3-5.6-1.7
		c-0.1,0-0.2,0-0.3,0c-0.8-0.2-1.7,0.3-1.9,1.1c0,0.2-0.1,0.4,0,0.5c0,2.4,2.6,4.1,4.5,5.1C48.4,57.4,50.7,57.7,52.9,57.2z"/>
	<path class="st0" d="M71.8,87.2c0.9,0.4,2,0,2.4-0.9c0.1-0.1,0.1-0.2,0.1-0.4c0.1-2-0.6-3.9-1.9-5.4c-1.2-1.6-2.4-3-3.8-4.4
		l-0.3-0.2c-0.6-0.6-1.6-0.7-2.2-0.1c-0.1,0.1-0.2,0.3-0.3,0.4c-1.3,2,0,4.9,1,6.7C67.9,84.9,69.7,86.4,71.8,87.2z"/>
	<path class="st0" d="M50.9,75.6c0.3,1.2-0.5,2.4-1.7,2.7c-0.2,0-0.3,0.1-0.5,0.1c-2.4,0.1-4.6-2.1-6.1-3.8
		c-1.6-1.8-3.1-3.8-4.4-5.9l-0.2-0.4c-0.6-0.9-0.4-2.1,0.5-2.7c0.2-0.1,0.4-0.2,0.6-0.3c2.8-1,5.9,1.3,7.9,3.1
		C49.1,70.2,50.5,72.8,50.9,75.6z"/>
</g>
</svg>
