<?xml version="1.0" encoding="utf-8"?>
<!-- Generator: Adobe Illustrator 23.0.2, SVG Export Plug-In . SVG Version: 6.00 Build 0)  -->
<svg version="1.1" id="Layer_1" xmlns="http://www.w3.org/2000/svg" xmlns:xlink="http://www.w3.org/1999/xlink" x="0px" y="0px"
	 viewBox="0 0 100 100" style="enable-background:new 0 0 100 100;" xml:space="preserve">
<style type="text/css">
	.st0{fill:#CC8D8D;}
</style>
<g>
	<title>Beauty&amp;amp; cosmetics 2 solid</title>
	<path class="st0" d="M53.2,17.9c0.2,0,0.4-0.1,0.6-0.2c0.7-0.4,1.2-0.9,1.6-1.6l14.4-1.2c1.2-0.1,2.3-0.7,3-1.7
		c0.7-0.9,0.9-2.1,0.7-3.2c-0.4-2-2.3-3.4-4.4-3.2L55.7,7.9c-0.4-0.3-0.8-0.6-1.3-0.6c-0.2,0-0.2,0-9,1.2c-3.5,0.5-6.1,3.5-6.1,7
		c0,2,1.2,5.3,3.7,5.7c0.4,0.1,0.5,0.2,0.5,0.2c0,0.3-0.1,0.6-0.2,0.9c-2.7,5.1-0.6,7.5,0.4,8.3c0.8,0.6,1.8,1,2.9,0.9
		c1.3,0,2.5-0.5,3.5-1.3c0.8-0.7,3.1-3.3,0.4-7.9c-0.4-0.9-0.3-1.9,0.3-2.7C51.1,18.6,52.1,18,53.2,17.9z M54.2,12.3
		c1.5-0.4,2.1-1.1,2.3-1.8l8.4-0.7l0.3,2.7l-10.4,0.9c-0.4-0.3-0.9-0.5-1.4-0.7l-0.3-0.1C53.5,12.5,53.8,12.4,54.2,12.3z"/>
	<path class="st0" d="M46.3,37.2c-0.8,0.9-3.4,4.1-3.4,6.2c-0.1,2.4,1.7,4.5,4.1,4.6c2.4,0.1,4.5-1.7,4.6-4.1c0-0.2,0-0.3,0-0.5
		c0-2.1-2.6-5.3-3.4-6.2C47.8,36.7,46.9,36.6,46.3,37.2C46.4,37.2,46.3,37.2,46.3,37.2z"/>
	<path class="st0" d="M87.5,54.2c-3.4-2.9-8.1-3.6-12.2-1.9c-5.1,1.5-15.2,1.9-22,2.1c-2.5,0.1-4.5,0.2-5.6,0.3
		c-2.4,0.2-8.3-0.1-12.9-0.4c-4.1-0.2-6.4-0.4-7.3-0.3l-1,0.1c-2,0.2-4,0.5-6,1c-2.4,0.7-5.4,1.3-8.3,0.2c-1.9-0.7-3.3-0.7-4.3-0.2
		c-0.6,0.3-1,0.8-1.1,1.5c0,0.1,0,0.1,0,0.2c-0.1,1.1,0.3,2.2,1,3.1c0.5,0.5,1.1,0.8,1.8,0.8L9.8,61c0.4,0.6,1,1.1,1.7,1.3l0.3,0.1
		l0,0c0.3,0.8,0.9,1.5,1.6,2.1c1.1,0.9,2.5,0.9,3.9,1c1.9,0.1,4,0.3,6.2,1.9l0.7,0.5c3.9,2.8,6.2,4.5,10.7,0.2
		c2.3-2.2,8.3-0.5,12.7,0.7c1.5,0.5,3.1,0.9,4.6,1.2c0.7,0.1,1.4,0.2,1.9,0.3c2.1,0.5,4.3,0.6,6.5,0.4c-5.9,6.8-16.9,17.1-20.4,20.3
		c-0.5,0.5-0.6,1.4-0.1,1.9c0.3,0.3,0.6,0.4,1,0.4h22.5c0.3,0,0.6-0.1,0.8-0.3c2.4-1.8,6.2-5.3,7.7-9.5c0.5,0.8,1,1.6,1.4,2.4
		c1.1,2.3,2.4,4.6,3.8,6.8c0.3,0.4,0.7,0.6,1.1,0.6h13.1c0.7,0,1.4-0.6,1.3-1.4c0-0.2,0-0.4-0.1-0.5c-1.2-2.7-2.7-5.3-4.5-7.6
		c-1.3-1.7-2.2-4.6-3.1-7.4c-1.2-3.8-2.4-7.4-4.7-8.9c-4-2.5-7.5-2.1-15.2-0.5c-6.3,1.3-7.7,1.1-10.8,0.5c-0.6-0.1-1.2-0.2-1.9-0.3
		c-1.5-0.3-2.9-0.7-4.3-1.1C43,64.6,36.4,62.7,33,66c-2.9,2.7-3.4,2.4-7.2-0.4l-0.7-0.5c-2.9-2.1-5.6-2.3-7.6-2.4
		c-1.1-0.1-2-0.1-2.4-0.5c-0.4-0.2-0.7-0.6-0.8-1c-0.3-0.9-1.1-1.5-2-1.6c-0.1-0.1-0.2-0.2-0.3-0.3c-0.4-0.5-1.1-1.4-2.2-1.4
		c-0.2-0.1-0.3-0.3-0.3-0.5c0.6,0,1.2,0.2,1.8,0.4c3.6,1.3,7.2,0.6,9.9-0.2c1.8-0.5,3.7-0.8,5.6-0.9l1-0.1c0.7-0.1,3.8,0.1,6.9,0.3
		c1.6,0.1,3.3,0.2,5,0.3v0.1c0,3.4,2.8,6.2,6.2,6.2h9.1c3.4,0,6.2-2.8,6.2-6.2v-0.6c5.6-0.3,11.5-0.8,15.2-1.9l0.2-0.1
		c3.2-1.3,6.8-0.7,9.3,1.5c3.9,3.4,4.7,4.5,4.9,4.7c0.2,0.7,1,1.1,1.7,0.9s1.1-1,0.9-1.7C93.1,59.8,92.9,58.8,87.5,54.2z"/>
</g>
</svg>
